<svg width="558" height="675" viewBox="0 0 558 675" fill="none" xmlns="http://www.w3.org/2000/svg">
<path d="M211.305 401.767C214.495 402.434 219.65 401.767 219.65 401.767H333.2C333.2 401.767 341.03 398.715 345.717 396.105C386.34 373.477 372.339 365.527 422.312 360.043C441.399 357.948 455.805 359.044 471.189 363.023C488.629 367.534 504.806 372.959 519.768 382.991C538.02 395.23 547.643 403.747 549.869 425.61C550.436 431.179 548.975 439.915 548.975 439.915C548.975 439.915 545.091 433.036 540.928 430.676C533.705 426.581 519.768 432.763 519.768 432.763C519.768 432.763 504.273 440.547 496.224 447.962C486.272 457.129 483.147 464.632 476.255 476.275C472.754 482.191 467.91 491.773 467.91 491.773C467.91 491.773 462.97 478.726 456.287 473.593C445.724 465.48 435.515 468.864 422.312 470.613C411.656 472.024 404.999 472.953 396.085 478.958C387.174 484.96 378.501 500.118 378.501 500.118C378.501 500.118 374.187 486.643 369.56 478.958C364.909 471.233 361.72 467.038 354.956 461.076C347.514 454.516 333.2 447.962 333.2 447.962H270.613C270.613 447.962 236.163 447.507 215.477 453.923C208.087 456.215 203.589 457.02 196.999 461.076C188.589 466.252 184.443 470.64 179.117 478.958C174.327 486.438 170.772 500.118 170.772 500.118C170.772 500.118 163.259 485.101 154.977 478.958C148.361 474.05 143.633 472.456 135.605 470.613C125.622 468.32 119.405 468.527 109.378 470.613C100.787 472.4 94.6583 472.691 88.5155 478.958C84.5032 483.05 81.3628 491.773 81.3628 491.773C81.3628 491.773 73.4865 471.831 65.269 461.076C56.8179 450.014 52.9683 440.472 40.8304 433.657C30.8818 428.07 21.9932 423.65 11.3252 427.696C5.98844 429.72 0 436.935 0 436.935C0 436.935 1.02368 424.11 4.17245 416.669C11.2123 400.031 20.3218 392.544 35.4658 382.693C55.4143 369.718 71.7989 366.293 95.3703 363.023C108.282 361.232 115.964 359.611 129 359.611H129.02C155.232 359.611 164.853 359.611 196.999 391.932C202.024 396.984 204.33 400.31 211.305 401.767Z" fill="#C12137"/>
<path d="M228.512 468.659C239.814 461.708 261.39 460.086 261.39 460.086L263.478 490.283C263.478 490.283 254.796 492.798 249.885 494.725C238.98 499.006 238.569 497.087 226.971 506.608C215.373 516.13 215.599 531.478 204 541C192.402 550.522 188.277 549 180 549C173.5 549 171.201 547.62 163.134 544.941C152.757 541.494 136.558 532.952 133.715 535.169C126.322 540.931 128.048 558.576 128.048 558.576L114.87 507.836L166.9 517.741C166.9 517.741 140.504 515.34 138.607 526.784C138.193 529.281 159.093 536.434 171.501 532.441C179.755 529.784 183.355 525.561 189.512 519.456C197.283 511.751 197.46 499.057 204 490.283C212.431 478.975 216.497 476.049 228.512 468.659Z" fill="#B6263F"/>
<path d="M205.587 562.164C204.267 546.582 205.587 522 205.587 522H261.926V549.613C261.926 556.475 262.093 560.326 261.926 567.184L261.916 567.594C261.587 581.154 261.363 590.364 259.717 603.833C258.244 615.883 257.01 623.862 249.406 629.94C244.246 634.064 236.912 634.645 230.995 633.454C219.118 631.064 214.538 617.856 210.742 602.327C207.428 588.772 206.943 578.178 205.587 562.164Z" fill="#F42B4B"/>
<path d="M292.587 562.164C291.267 546.582 292.587 522 292.587 522H348.926V549.613C348.926 556.475 349.093 560.326 348.926 567.184L348.916 567.594C348.587 581.154 348.363 590.364 346.717 603.833C345.244 615.883 344.01 623.862 336.406 629.94C331.246 634.064 323.912 634.645 317.995 633.454C306.118 631.064 301.538 617.856 297.742 602.327C294.428 588.772 293.943 578.178 292.587 562.164Z" fill="#F42B4B"/>
<path d="M210.265 372.99L212.518 362H340.161L343.539 372.49C343.539 372.49 347.768 374.964 350.297 376.986C358.562 383.593 370.5 379.5 382.5 376.986C394.5 374.472 397 372.014 407 369.5C417 366.986 438.481 361.925 444 369.5C449.922 377.628 435.5 390.5 426.5 397C418.703 402.631 404 409.5 399 410.955C393.433 412.574 382 417.5 375 424C368.432 430.098 363.678 435.57 358.556 442.925C362.235 455.119 362.235 487.179 358.556 499.373C354.165 513.925 350.599 521.869 342.038 532.342C332.319 544.231 324.464 547.493 311.939 552.695L311.629 552.823C297.811 558.562 289.304 559.472 274.838 558.818C260.211 558.157 251.815 555.929 238.046 549.327C226.573 543.825 219.446 541.026 210.265 530.344C201.81 520.506 196.235 513.824 193.371 499.373C191.353 489.187 191.353 482.584 193.371 472.398C193.371 472.398 188.7 484.365 183.235 487.384C178.361 490.077 174.117 491.269 169.72 487.384C164.93 483.152 163.689 474.911 162.587 467.402C161.126 457.446 162.587 451.917 164.839 442.925C168.106 429.886 171.648 422.184 177.604 410.955C182.812 401.135 186.908 397.371 193.371 388.975C199.164 381.45 210.265 372.99 210.265 372.99Z" fill="#F32C4B"/>
<circle cx="280" cy="213" r="175" fill="#D32942"/>
<path d="M413.989 64.5C414.467 38.6434 398.989 0 398.989 0C398.989 0 391.275 39.5374 376.489 59.5C365.042 74.9546 353.5 100 353.5 100C359.5 116 372 124 380.5 128C380.5 128 394.354 134.372 398.989 124C408.766 102.122 413.547 88.4591 413.989 64.5Z" fill="#B6263F"/>
<path d="M157.011 64.5C156.533 38.6434 172.011 0 172.011 0C172.011 0 179.725 39.5374 194.511 59.5C205.958 74.9546 217.5 100 217.5 100C211.5 116 199 124 190.5 128C190.5 128 176.646 134.372 172.011 124C162.234 102.122 157.453 88.4591 157.011 64.5Z" fill="#B6263F"/>
<path d="M200.366 204.701C178.434 204.771 145.084 204.701 145.084 204.701C145.084 204.701 157.307 246.848 173.366 253.5C186.344 258.876 195.988 256.752 209.866 253.5C235.864 247.408 263.384 210.945 263.384 210.945C263.384 210.945 226.932 204.615 200.366 204.701Z" fill="white"/>
<path d="M359.866 205.701C381.799 205.771 415.054 205.701 415.054 205.701C415.054 205.701 402.831 247.848 386.772 254.5C373.794 259.876 364.15 257.752 350.271 254.5C324.274 248.408 296.753 211.945 296.753 211.945C296.753 211.945 333.301 205.615 359.866 205.701Z" fill="white"/>
<path d="M227.061 321C224.561 321 299.394 332.564 356.036 299" stroke="#9A1A2C" stroke-width="10" stroke-linecap="round"/>
<path d="M296.738 635.592C303.051 648.1 307.392 653.921 324.344 650.544L457.486 351.898C457.486 351.898 470.193 369.493 488.053 361.553C537.507 339.568 551.803 224.815 551.803 224.815L516.423 252.404L530.887 258.707L486.602 334.939L465.939 325.934L512.195 226.354L534.324 225.43L525.738 174.61L482.537 202.862L496.295 219.425L450.376 319.152L434.815 312.371L458.564 227.19L472.882 233.43L463.983 186.545C463.983 186.545 399.389 282.977 411.897 326.653C415.659 339.79 436.832 344.668 436.832 344.668L296.738 635.592Z" fill="#3B3B3B"/>
</svg>
