<svg width="728" height="613" viewBox="0 0 728 613" fill="none" xmlns="http://www.w3.org/2000/svg">
<path d="M300.305 390.156C303.495 390.822 308.65 390.156 308.65 390.156H422.2C422.2 390.156 430.03 387.104 434.717 384.493C475.34 361.866 461.339 353.916 511.312 348.431C530.399 346.336 544.805 347.432 560.189 351.412C577.629 355.923 593.806 361.347 608.768 371.38C627.02 383.618 636.643 392.136 638.869 413.998C639.436 419.567 637.975 428.304 637.975 428.304C637.975 428.304 634.091 421.425 629.928 419.065C622.705 414.969 608.768 421.151 608.768 421.151C608.768 421.151 593.273 428.936 585.224 436.351C575.272 445.518 572.147 453.021 565.255 464.664C561.754 470.579 556.91 480.162 556.91 480.162C556.91 480.162 551.97 467.115 545.287 461.982C534.724 453.868 524.515 457.252 511.312 459.001C500.656 460.413 493.999 461.341 485.085 467.346C476.174 473.349 467.501 488.506 467.501 488.506C467.501 488.506 463.187 475.032 458.56 467.346C453.909 459.622 450.72 455.426 443.956 449.464C436.514 442.904 422.2 436.351 422.2 436.351H359.613C359.613 436.351 325.163 435.896 304.477 442.312C297.087 444.604 292.589 445.408 285.999 449.464C277.589 454.641 273.443 459.029 268.117 467.346C263.327 474.827 259.772 488.506 259.772 488.506C259.772 488.506 252.259 473.49 243.977 467.346C237.361 462.439 232.633 460.845 224.605 459.001C214.622 456.709 208.405 456.915 198.378 459.001C189.787 460.789 183.658 461.08 177.516 467.346C173.503 471.439 170.363 480.162 170.363 480.162C170.363 480.162 162.486 460.22 154.269 449.464C145.818 438.403 141.968 428.861 129.83 422.045C119.882 416.459 110.993 412.038 100.325 416.085C94.9884 418.109 89 425.324 89 425.324C89 425.324 90.0237 412.499 93.1725 405.057C100.212 388.42 109.322 380.932 124.466 371.082C144.414 358.106 155.759 354.322 180 350C192.996 347.683 204.964 348 218 348H218.02C244.232 348 253.853 348 285.999 380.321C291.024 385.373 293.33 388.698 300.305 390.156Z" fill="#3D393A"/>
<path d="M448.793 487.659C437.49 480.708 415.914 479.086 415.914 479.086L413.826 509.283C413.826 509.283 422.508 511.798 427.419 513.725C438.324 518.006 438.735 516.087 450.333 525.608C461.931 535.13 461.705 550.478 473.304 560C484.902 569.522 489.027 568 497.304 568C503.804 568 506.103 566.62 514.17 563.941C524.547 560.494 540.746 551.952 543.59 554.169C550.982 559.931 549.256 577.576 549.256 577.576L562.434 526.836L510.404 536.741C510.404 536.741 536.8 534.34 538.697 545.784C539.111 548.281 518.211 555.434 505.803 551.441C497.549 548.784 493.949 544.561 487.792 538.456C480.021 530.751 479.844 518.057 473.304 509.283C464.873 497.975 460.807 495.049 448.793 487.659Z" fill="#B6263F"/>
<path d="M292.587 541.164C291.267 525.582 292.587 501 292.587 501H348.926V528.613C348.926 535.475 349.093 539.326 348.926 546.184L348.916 546.594C348.587 560.154 348.363 569.364 346.717 582.833C345.244 594.883 344.01 602.862 336.406 608.94C331.246 613.064 323.912 613.645 317.995 612.454C306.118 610.064 301.538 596.856 297.742 581.327C294.428 567.772 293.943 557.178 292.587 541.164Z" fill="#F42B4B"/>
<path d="M379.587 541.164C378.267 525.582 379.587 501 379.587 501H435.926V528.613C435.926 535.475 436.093 539.326 435.926 546.184L435.916 546.594C435.587 560.154 435.363 569.364 433.717 582.833C432.244 594.883 431.01 602.862 423.406 608.94C418.246 613.064 410.912 613.645 404.995 612.454C393.118 610.064 388.538 596.856 384.742 581.327C381.428 567.772 380.943 557.178 379.587 541.164Z" fill="#F42B4B"/>
<path d="M297.265 351.99L299.518 341H427.161L430.539 351.49L439.55 385.459C439.55 385.459 442.506 392.917 443.679 407.938L446.683 446.402C446.243 458.888 448.224 466.388 445.556 478.373C442.254 493.21 437.599 500.869 429.038 511.342C419.319 523.231 411.464 526.493 398.939 531.695L398.629 531.823C384.811 537.562 376.304 538.472 361.838 537.818C347.211 537.157 338.815 534.929 325.046 528.327C313.573 522.825 306.446 520.026 297.265 509.344C288.81 499.506 283.235 492.824 280.371 478.373C278.353 468.187 278.353 461.584 280.371 451.398C281.984 434.426 282.115 424.748 284.501 407.938C285.755 399.101 288.255 385.459 288.255 385.459L297.265 351.99Z" fill="#F32C4B"/>
<path d="M293.666 440.712C301.795 445.621 315.21 449.474 315.21 449.474L310.526 398.152C310.526 398.152 306.308 394.77 298.351 390.726C282.333 382.586 266.568 355.118 248.497 352.696C242.978 351.956 238.591 352.386 235.904 357.602C232.977 363.284 234.812 371.413 236.511 378.81C238.764 388.617 242.133 393.239 247.496 400.8C255.273 411.764 261.369 417.654 270.995 425.956C279.413 433.215 284.595 435.235 293.666 440.712Z" fill="#F32C4B"/>
<path d="M410.323 408.282C410.323 408.282 420.607 397.581 432.07 388.645C446.693 377.245 462.522 359.731 480.682 355.336C486.553 353.914 491.021 354.428 494.242 359.248C496.807 363.087 496.658 366.912 496.106 372.427C495.197 381.516 491.793 389.313 486.547 397.234C480.481 406.392 474.443 411.577 465.259 417.919C456.075 424.262 453.411 425.702 444.227 432.045C435.044 438.388 427.746 442.165 417.41 444.427L410.323 408.282Z" fill="#F32C4B"/>
<circle cx="367" cy="192" r="175" fill="#D32942"/>
<path d="M366.5 327.345C340.569 327.345 323 272.345 323 272.345C354.87 257.486 373.683 254.358 411 272.345C411 272.345 394.5 327.345 366.5 327.345Z" fill="#DC586C"/>
<path d="M249.601 181.573C284.304 207.749 305.659 212.969 346.601 205.573" stroke="#9A1A2C" stroke-width="10" stroke-linecap="round"/>
<path d="M484 182C449.297 208.176 427.942 213.396 387 206" stroke="#9A1A2C" stroke-width="10" stroke-linecap="round"/>
<path d="M487.551 115.997C454.069 117.849 441.966 112.093 428.93 87.1523C428.93 87.1523 454.977 19.3199 493.134 6.20022C516.157 -1.71595 532.703 -2.41024 555.476 6.20022C580.242 15.5641 602 58.3073 602 58.3073C602 58.3073 598.723 56.4714 594.556 58.3073C574.605 67.0987 559.203 50.817 538.727 58.3073C510.444 68.6538 487.551 115.997 487.551 115.997Z" fill="#A70000"/>
<path d="M596.417 54.4921C575.016 48.9092 545.241 56.6505 545.241 56.6505C545.241 56.6505 556.419 86.0393 551.754 102.877C548.032 116.31 545.241 133.99 548.032 133.99C573.658 133.99 574.573 124.941 608.514 152.193C605.976 133.539 617.818 60.075 596.417 54.4921Z" fill="#C12137"/>
<path d="M682.952 82.7041L661.551 127.367C661.551 127.367 673.37 129.582 679.23 133.88C693.187 144.116 695.797 161.034 691.326 178.543C688.952 187.845 679.23 199.944 679.23 199.944C679.23 199.944 684.358 200.336 687.605 199.944C706.312 197.689 719.379 182.626 724.824 164.587C734.654 132.02 719.475 105.966 709.006 97.5918C698.536 89.2175 691.326 85.4956 682.952 82.7041Z" fill="#B6263F"/>
<path d="M616.888 102.113C595.045 125.508 551.754 145.155 547.102 132.129C547.102 132.129 548.08 145.546 552.685 157.011C562.414 181.235 590.834 186.918 616.888 177.613C646.312 167.105 655.899 113.263 680.161 132.95C676.611 112.69 711.698 97.902 694.118 87.2248C667.865 71.2803 637.85 79.6613 616.888 102.113Z" fill="#A70000"/>
<path d="M620.61 98.6313C620.61 98.6313 635.361 151.834 633.5 163C631.639 174.166 579.932 199.124 556.407 167.487C548.589 156.973 548.964 133.059 548.964 133.059C576.569 130.417 588.46 123.247 620.61 98.6313Z" fill="#A70000"/>
<path d="M534.075 60.4813C506.165 42.7524 491.395 29.2997 487.551 9.30469C456.017 30.8006 442.88 47.1676 428 87.4653C442.445 114.558 456.447 121.685 487.551 117.241C501.017 87.8387 511.136 75.4058 534.075 60.4813Z" fill="#A70000"/>
<path d="M240.449 115.997C273.931 117.849 286.034 112.093 299.07 87.1523C299.07 87.1523 273.023 19.3199 234.866 6.20022C211.843 -1.71595 195.297 -2.41024 172.524 6.20022C147.758 15.5641 126 58.3073 126 58.3073C126 58.3073 129.277 56.4714 133.444 58.3073C153.395 67.0987 168.797 50.817 189.273 58.3073C217.556 68.6538 240.449 115.997 240.449 115.997Z" fill="#A70000"/>
<path d="M131.583 54.4921C152.984 48.9092 182.759 56.6505 182.759 56.6505C182.759 56.6505 171.581 86.0393 176.246 102.877C179.968 116.31 182.759 133.99 179.968 133.99C154.342 133.99 153.427 124.941 119.486 152.193C122.024 133.539 110.182 60.075 131.583 54.4921Z" fill="#C12137"/>
<path d="M45.0479 82.7041L66.449 127.367C66.449 127.367 54.6302 129.582 48.7698 133.88C34.8125 144.116 32.2035 161.034 36.6735 178.543C39.0483 187.845 48.7698 199.944 48.7698 199.944C48.7698 199.944 43.6423 200.336 40.3954 199.944C21.6878 197.689 8.6211 182.626 3.17612 164.587C-6.65392 132.02 8.5248 105.966 18.9943 97.5918C29.4639 89.2175 36.6735 85.4956 45.0479 82.7041Z" fill="#C12137"/>
<path d="M111.112 102.113C132.955 125.508 176.246 145.155 180.898 132.129C180.898 132.129 179.92 145.546 175.315 157.011C165.586 181.235 137.166 186.918 111.112 177.613C81.6882 167.105 72.1009 113.263 47.8393 132.95C51.3889 112.69 16.3018 97.902 33.8819 87.2248C60.1348 71.2803 90.1505 79.6613 111.112 102.113Z" fill="#A70000"/>
<path d="M107.39 98.6313C107.39 98.6313 91.139 150.834 93 162C94.861 173.166 148.068 199.124 171.593 167.487C179.411 156.973 179.036 133.059 179.036 133.059C151.431 130.417 139.54 123.247 107.39 98.6313Z" fill="#A70000"/>
<path d="M193.925 60.4813C221.835 42.7524 236.605 29.2997 240.449 9.30469C271.983 30.8006 285.12 47.1676 300 87.4653C285.555 114.558 271.553 121.685 240.449 117.241C226.983 87.8387 216.864 75.4058 193.925 60.4813Z" fill="#A70000"/>
</svg>
