<svg width="261" height="170" viewBox="0 0 261 170" fill="none" xmlns="http://www.w3.org/2000/svg">
<path d="M145.337 36.0031C134.357 35.8572 117.655 40.9497 117.655 40.9497H95.9052C95.9052 40.9497 85.5838 39.9402 79.0982 40.9497C66.8129 42.8621 61.1357 48.478 50.4276 54.8003C46.0919 57.3601 43.7994 59.0211 39.5525 61.7256C31.0585 67.1346 25.6577 69.2745 17.8023 75.5762C13.324 79.1687 9.09276 80.1504 6.92721 85.4695C3.21333 94.5917 11.4355 100.712 17.8023 108.224C24.4518 116.07 29.8184 119.755 39.5525 123.064C51.2508 127.041 59.0541 120.742 71.1891 123.064C81.2651 124.992 85.8291 130.04 95.9052 131.968C108.04 134.29 115.187 131.968 127.542 131.968H157.201C165.309 131.968 169.949 133.199 177.963 131.968C188.102 130.41 193.007 126.487 202.679 123.064C211.543 119.927 216.765 118.829 225.418 115.149C235.43 110.891 244.609 111.666 250.134 102.288C255.428 93.3017 255.148 84.7217 250.134 75.5762C245.751 67.5821 239.418 65.9618 231.349 61.7256C224.427 58.0912 219.876 57.5719 212.565 54.8003C205.592 52.1567 201.817 50.3137 194.77 47.875C185.647 44.7183 180.422 43.2291 171.042 40.9497C161.109 38.5357 155.559 36.1389 145.337 36.0031Z" fill="#D9D9D9"/>
<path d="M145.337 36.0031C134.357 35.8572 117.655 40.9497 117.655 40.9497H95.9052C95.9052 40.9497 85.5838 39.9402 79.0982 40.9497C66.8129 42.8621 61.1357 48.478 50.4276 54.8003C46.0919 57.3601 43.7994 59.0211 39.5525 61.7256C31.0585 67.1346 25.6577 69.2745 17.8023 75.5762C13.324 79.1687 9.09276 80.1504 6.92721 85.4695C3.21333 94.5917 11.4355 100.712 17.8023 108.224C24.4518 116.07 29.8184 119.755 39.5525 123.064C51.2508 127.041 59.0541 120.742 71.1891 123.064C81.2651 124.992 85.8291 130.04 95.9052 131.968C108.04 134.29 115.187 131.968 127.542 131.968H157.201C165.309 131.968 169.949 133.199 177.963 131.968C188.102 130.41 193.007 126.487 202.679 123.064C211.543 119.927 216.765 118.829 225.418 115.149C235.43 110.891 244.609 111.666 250.134 102.288C255.428 93.3017 255.148 84.7217 250.134 75.5762C245.751 67.5821 239.418 65.9618 231.349 61.7256C224.427 58.0912 219.876 57.5719 212.565 54.8003C205.592 52.1567 201.817 50.3137 194.77 47.875C185.647 44.7183 180.422 43.2291 171.042 40.9497C161.109 38.5357 155.559 36.1389 145.337 36.0031Z" stroke="#D9D9D9" stroke-width="3"/>
<path d="M145.337 36.0031C134.357 35.8572 117.655 40.9497 117.655 40.9497H95.9052C95.9052 40.9497 85.5838 39.9402 79.0982 40.9497C66.8129 42.8621 61.1357 48.478 50.4276 54.8003C46.0919 57.3601 43.7994 59.0211 39.5525 61.7256C31.0585 67.1346 25.6577 69.2745 17.8023 75.5762C13.324 79.1687 9.09276 80.1504 6.92721 85.4695C3.21333 94.5917 11.4355 100.712 17.8023 108.224C24.4518 116.07 29.8184 119.755 39.5525 123.064C51.2508 127.041 59.0541 120.742 71.1891 123.064C81.2651 124.992 85.8291 130.04 95.9052 131.968C108.04 134.29 115.187 131.968 127.542 131.968H157.201C165.309 131.968 169.949 133.199 177.963 131.968C188.102 130.41 193.007 126.487 202.679 123.064C211.543 119.927 216.765 118.829 225.418 115.149C235.43 110.891 244.609 111.666 250.134 102.288C255.428 93.3017 255.148 84.7217 250.134 75.5762C245.751 67.5821 239.418 65.9618 231.349 61.7256C224.427 58.0912 219.876 57.5719 212.565 54.8003C205.592 52.1567 201.817 50.3137 194.77 47.875C185.647 44.7183 180.422 43.2291 171.042 40.9497C161.109 38.5357 155.559 36.1389 145.337 36.0031Z" stroke="black" stroke-opacity="0.2" stroke-width="3"/>
<path d="M145.337 36.0031C134.357 35.8572 117.655 40.9497 117.655 40.9497H95.9052C95.9052 40.9497 85.5838 39.9402 79.0982 40.9497C66.8129 42.8621 61.1357 48.478 50.4276 54.8003C46.0919 57.3601 43.7994 59.0211 39.5525 61.7256C31.0585 67.1346 25.6577 69.2745 17.8023 75.5762C13.324 79.1687 9.09276 80.1504 6.92721 85.4695C3.21333 94.5917 11.4355 100.712 17.8023 108.224C24.4518 116.07 29.8184 119.755 39.5525 123.064C51.2508 127.041 59.0541 120.742 71.1891 123.064C81.2651 124.992 85.8291 130.04 95.9052 131.968C108.04 134.29 115.187 131.968 127.542 131.968H157.201C165.309 131.968 169.949 133.199 177.963 131.968C188.102 130.41 193.007 126.487 202.679 123.064C211.543 119.927 216.765 118.829 225.418 115.149C235.43 110.891 244.609 111.666 250.134 102.288C255.428 93.3017 255.148 84.7217 250.134 75.5762C245.751 67.5821 239.418 65.9618 231.349 61.7256C224.427 58.0912 219.876 57.5719 212.565 54.8003C205.592 52.1567 201.817 50.3137 194.77 47.875C185.647 44.7183 180.422 43.2291 171.042 40.9497C161.109 38.5357 155.559 36.1389 145.337 36.0031Z" stroke="black" stroke-opacity="0.2" stroke-width="3"/>
<path d="M103.551 98.0651C88.5 105.502 94.9116 91.6278 83.7058 98.0651C72.5 104.502 66.3653 101.125 62.8616 92.3027C56.9144 77.3269 41.9716 93.5621 41.0316 83.0828C40.1779 73.5656 56.9144 66.9479 56.9144 66.9479C56.9144 66.9479 67.1423 61.761 72 58.5291C76.8577 55.2972 83.229 60.5013 88 60.5013C92.771 60.5013 102.541 58.5291 102.541 58.5291L120 56.5C120 56.5 135.966 52.5056 149.196 54.2705C158.451 55.5052 162.836 60.0923 172.018 62.3379C183.761 65.2096 199 54.2705 202.779 65.7954C202.779 65.7954 243.406 88.8749 223 85.5024C202.594 82.13 211.75 97.0813 202.779 96.5024C199.649 96.3005 201 96.0024 195 94.5024C189 93.0024 189.982 109.702 179.5 101.002C169.018 92.3027 155.5 107.404 150 102.501C148 100.719 135.5 93.0013 125.5 100.848C115.5 108.695 118.603 90.6278 103.551 98.0651Z" fill="#797873"/>
<path d="M103.551 98.0651C88.5 105.502 94.9116 91.6278 83.7058 98.0651C72.5 104.502 66.3653 101.125 62.8616 92.3027C56.9144 77.3269 41.9716 93.5621 41.0316 83.0828C40.1779 73.5656 56.9144 66.9479 56.9144 66.9479C56.9144 66.9479 67.1423 61.761 72 58.5291C76.8577 55.2972 83.229 60.5013 88 60.5013C92.771 60.5013 102.541 58.5291 102.541 58.5291L120 56.5C120 56.5 135.966 52.5056 149.196 54.2705C158.451 55.5052 162.836 60.0923 172.018 62.3379C183.761 65.2096 199 54.2705 202.779 65.7954C202.779 65.7954 243.406 88.8749 223 85.5024C202.594 82.13 211.75 97.0813 202.779 96.5024C199.649 96.3005 201 96.0024 195 94.5024C189 93.0024 189.982 109.702 179.5 101.002C169.018 92.3027 155.5 107.404 150 102.501C148 100.719 135.5 93.0013 125.5 100.848C115.5 108.695 118.603 90.6278 103.551 98.0651Z" stroke="#797873" stroke-width="3"/>
<path d="M103.551 98.0651C88.5 105.502 94.9116 91.6278 83.7058 98.0651C72.5 104.502 66.3653 101.125 62.8616 92.3027C56.9144 77.3269 41.9716 93.5621 41.0316 83.0828C40.1779 73.5656 56.9144 66.9479 56.9144 66.9479C56.9144 66.9479 67.1423 61.761 72 58.5291C76.8577 55.2972 83.229 60.5013 88 60.5013C92.771 60.5013 102.541 58.5291 102.541 58.5291L120 56.5C120 56.5 135.966 52.5056 149.196 54.2705C158.451 55.5052 162.836 60.0923 172.018 62.3379C183.761 65.2096 199 54.2705 202.779 65.7954C202.779 65.7954 243.406 88.8749 223 85.5024C202.594 82.13 211.75 97.0813 202.779 96.5024C199.649 96.3005 201 96.0024 195 94.5024C189 93.0024 189.982 109.702 179.5 101.002C169.018 92.3027 155.5 107.404 150 102.501C148 100.719 135.5 93.0013 125.5 100.848C115.5 108.695 118.603 90.6278 103.551 98.0651Z" stroke="black" stroke-opacity="0.2" stroke-width="3"/>
<path d="M103.551 98.0651C88.5 105.502 94.9116 91.6278 83.7058 98.0651C72.5 104.502 66.3653 101.125 62.8616 92.3027C56.9144 77.3269 41.9716 93.5621 41.0316 83.0828C40.1779 73.5656 56.9144 66.9479 56.9144 66.9479C56.9144 66.9479 67.1423 61.761 72 58.5291C76.8577 55.2972 83.229 60.5013 88 60.5013C92.771 60.5013 102.541 58.5291 102.541 58.5291L120 56.5C120 56.5 135.966 52.5056 149.196 54.2705C158.451 55.5052 162.836 60.0923 172.018 62.3379C183.761 65.2096 199 54.2705 202.779 65.7954C202.779 65.7954 243.406 88.8749 223 85.5024C202.594 82.13 211.75 97.0813 202.779 96.5024C199.649 96.3005 201 96.0024 195 94.5024C189 93.0024 189.982 109.702 179.5 101.002C169.018 92.3027 155.5 107.404 150 102.501C148 100.719 135.5 93.0013 125.5 100.848C115.5 108.695 118.603 90.6278 103.551 98.0651Z" stroke="black" stroke-opacity="0.2" stroke-width="3"/>
<path d="M102.286 101.789C106.949 97.7599 124.903 103.601 125.096 94.0424C125.201 88.8773 100.949 79.298 87.7038 101.148C77.4419 118.076 94.4039 129.626 95.835 128.161C97.266 126.696 89.1113 118.805 91.641 117.67C94.1706 116.534 101.29 127.647 103.807 125.804C106.324 123.961 97.4914 118.913 99.9958 116.363C102.5 113.812 109.939 122.439 110.611 119.235C111.282 116.031 97.6221 105.818 102.286 101.789Z" fill="#D32942"/>
<path d="M102.286 101.789C106.949 97.7599 124.903 103.601 125.096 94.0424C125.201 88.8773 100.949 79.298 87.7038 101.148C77.4419 118.076 94.4039 129.626 95.835 128.161C97.266 126.696 89.1113 118.805 91.641 117.67C94.1706 116.534 101.29 127.647 103.807 125.804C106.324 123.961 97.4914 118.913 99.9958 116.363C102.5 113.812 109.939 122.439 110.611 119.235C111.282 116.031 97.6221 105.818 102.286 101.789Z" stroke="#D32942"/>
<path d="M102.286 101.789C106.949 97.7599 124.903 103.601 125.096 94.0424C125.201 88.8773 100.949 79.298 87.7038 101.148C77.4419 118.076 94.4039 129.626 95.835 128.161C97.266 126.696 89.1113 118.805 91.641 117.67C94.1706 116.534 101.29 127.647 103.807 125.804C106.324 123.961 97.4914 118.913 99.9958 116.363C102.5 113.812 109.939 122.439 110.611 119.235C111.282 116.031 97.6221 105.818 102.286 101.789Z" stroke="black" stroke-opacity="0.2"/>
<path d="M164.27 102.023C159.644 98.0102 141.601 103.884 141.511 94.3395C141.463 89.1818 165.854 79.5603 178.88 101.349C188.972 118.23 171.86 129.803 170.443 128.343C169.026 126.884 177.278 118.985 174.757 117.857C172.236 116.729 164.986 127.842 162.486 126.008C159.985 124.173 168.885 119.112 166.405 116.571C163.925 114.03 156.381 122.662 155.743 119.464C155.106 116.266 168.897 106.036 164.27 102.023Z" fill="#D32942"/>
<path d="M164.27 102.023C159.644 98.0102 141.601 103.884 141.511 94.3395C141.463 89.1818 165.854 79.5603 178.88 101.349C188.972 118.23 171.86 129.803 170.443 128.343C169.026 126.884 177.278 118.985 174.757 117.857C172.236 116.729 164.986 127.842 162.486 126.008C159.985 124.173 168.885 119.112 166.405 116.571C163.925 114.03 156.381 122.662 155.743 119.464C155.106 116.266 168.897 106.036 164.27 102.023Z" stroke="#D32942"/>
<path d="M164.27 102.023C159.644 98.0102 141.601 103.884 141.511 94.3395C141.463 89.1818 165.854 79.5603 178.88 101.349C188.972 118.23 171.86 129.803 170.443 128.343C169.026 126.884 177.278 118.985 174.757 117.857C172.236 116.729 164.986 127.842 162.486 126.008C159.985 124.173 168.885 119.112 166.405 116.571C163.925 114.03 156.381 122.662 155.743 119.464C155.106 116.266 168.897 106.036 164.27 102.023Z" stroke="black" stroke-opacity="0.2"/>
<ellipse cx="129.795" cy="61.0323" rx="43.0337" ry="41.6964" fill="#D32942"/>
<ellipse cx="129.795" cy="61.0323" rx="43.0337" ry="41.6964" stroke="#D32942"/>
<ellipse cx="129.795" cy="61.0323" rx="43.0337" ry="41.6964" stroke="black" stroke-opacity="0.2"/>
<path d="M91.9284 21.3681C91.8111 15.2074 95.617 6 95.617 6C95.617 6 97.514 15.4204 101.15 20.1768C103.965 23.859 110.861 28.0395 110.861 28.0395C111.316 34.9434 109.375 37.8045 99.4259 41.6206C99.4259 41.6206 96.7568 38.0161 95.617 35.5449C93.2129 30.3321 92.0372 27.0767 91.9284 21.3681Z" fill="#550A17"/>
<path d="M166.736 21.3681C166.853 15.2074 163.047 6 163.047 6C163.047 6 161.15 15.4204 157.514 20.1768C154.699 23.859 147.803 28.0395 147.803 28.0395C147.348 34.9434 149.289 37.8045 159.238 41.6206C159.238 41.6206 161.907 38.0161 163.047 35.5449C165.451 30.3321 166.627 27.0767 166.736 21.3681Z" fill="#550A17"/>
<path d="M110.964 55.5399C106.829 52.1856 98.2097 49.6016 98.2097 49.6016C98.2097 49.6016 96.2437 56.316 98.2097 59.9936C99.7985 62.9655 101.847 64.1649 105.012 65.9319C109.898 68.6594 119.468 68.901 119.468 68.901C119.468 68.901 115.974 59.6027 110.964 55.5399Z" fill="white" stroke="#9A1A2C"/>
<path d="M148.383 55.5399C152.519 52.1856 161.138 49.6016 161.138 49.6016C161.138 49.6016 163.104 56.316 161.138 59.9936C159.549 62.9655 157.5 64.1649 154.335 65.9319C149.45 68.6594 139.88 68.901 139.88 68.901C139.88 68.901 143.374 59.6027 148.383 55.5399Z" fill="white" stroke="#9A1A2C"/>
<path d="M113.074 81.2891C128.524 89.4301 135.042 89.2861 148.971 81.2891" stroke="#9A1A2C" stroke-linecap="round"/>
</svg>
