<svg width="105" height="105" viewBox="0 0 105 105" fill="none" xmlns="http://www.w3.org/2000/svg">
<ellipse cx="52.0337" cy="59.0323" rx="43.0337" ry="41.6964" fill="#D32942"/>
<ellipse cx="52.0337" cy="59.0323" rx="43.0337" ry="41.6964" stroke="#D32942"/>
<ellipse cx="52.0337" cy="59.0323" rx="43.0337" ry="41.6964" stroke="black" stroke-opacity="0.2"/>
<path d="M14.1667 19.3681C14.0493 13.2074 17.8553 4 17.8553 4C17.8553 4 19.7523 13.4204 23.3882 18.1768C26.2031 21.859 33.0989 26.0395 33.0989 26.0395C33.554 32.9434 31.6137 35.8045 21.6642 39.6206C21.6642 39.6206 18.9951 36.0161 17.8553 33.5449C15.4511 28.3321 14.2755 25.0767 14.1667 19.3681Z" fill="#550A17"/>
<path d="M88.9739 19.3681C89.0913 13.2074 85.2853 4 85.2853 4C85.2853 4 83.3883 13.4204 79.7524 18.1768C76.9376 21.859 70.0418 26.0395 70.0418 26.0395C69.5867 32.9434 71.5269 35.8045 81.4764 39.6206C81.4764 39.6206 84.1455 36.0161 85.2853 33.5449C87.6895 28.3321 88.8651 25.0767 88.9739 19.3681Z" fill="#550A17"/>
<path d="M33.2027 53.5399C29.067 50.1856 20.448 47.6016 20.448 47.6016C20.448 47.6016 18.482 54.316 20.448 57.9936C22.0367 60.9655 24.0854 62.1649 27.2505 63.9319C32.1362 66.6594 41.7058 66.901 41.7058 66.901C41.7058 66.901 38.212 57.6027 33.2027 53.5399Z" fill="white" stroke="#9A1A2C"/>
<path d="M70.6215 53.5399C74.7572 50.1856 83.3762 47.6016 83.3762 47.6016C83.3762 47.6016 85.3422 54.316 83.3762 57.9936C81.7875 60.9655 79.7388 62.1649 76.5737 63.9319C71.6881 66.6594 62.1184 66.901 62.1184 66.901C62.1184 66.901 65.6122 57.6027 70.6215 53.5399Z" fill="white" stroke="#9A1A2C"/>
<path d="M35.3125 79.2891C50.7623 87.4301 57.2801 87.2861 71.2089 79.2891" stroke="#9A1A2C" stroke-linecap="round"/>
</svg>
