<svg width="1556" height="784" viewBox="0 0 1556 784" fill="none" xmlns="http://www.w3.org/2000/svg">
<g clip-path="url(#clip0_234_2692)">
<path d="M120.091 180.311C130.834 128.862 176.188 92 228.747 92H1357.85C1412.54 92 1459.08 131.833 1467.52 185.866L1537.98 636.866C1548.5 704.184 1496.45 765 1428.31 765H134.572C64.1427 765 11.5199 700.254 25.916 631.311L120.091 180.311Z" fill="#ABA59E"/>
<path d="M120.091 180.311C130.834 128.862 176.188 92 228.747 92H1357.85C1412.54 92 1459.08 131.833 1467.52 185.866L1537.98 636.866C1548.5 704.184 1496.45 765 1428.31 765H134.572C64.1427 765 11.5199 700.254 25.916 631.311L120.091 180.311Z" fill="black" fill-opacity="0.2"/>
<path d="M128.36 107.546C138.61 55.5135 184.234 18 237.267 18H1350.16C1405.21 18 1451.95 58.3505 1459.97 112.814L1531.25 596.405C1541.13 663.429 1489.19 723.591 1421.44 723.591H142C72.0847 723.591 19.5798 659.734 33.0932 591.137L128.36 107.546Z" fill="#ABA59E"/>
<path fill-rule="evenodd" clip-rule="evenodd" d="M149.334 660.16C149.99 660.74 152.516 664.659 152.516 664.659C152.516 664.659 148.4 662.359 147.744 661.778C143.739 658.235 137.821 655.613 132.641 655.819C131.506 655.865 130.375 655.965 129.244 656.066C127.842 656.19 126.44 656.315 125.031 656.334C122.343 656.371 119.505 656.046 116.456 654.657C111.577 652.435 108.376 648.221 106.219 643.951C105.041 641.618 104.15 639.219 103.458 637.038C102.859 638.062 102.226 638.993 101.591 639.771C100.477 641.137 99.2817 642.325 98.1002 643.5C96.002 645.586 93.9479 647.629 92.4717 650.541C92.2935 650.892 92.1239 651.222 91.963 651.534C90.7657 653.86 90.0553 655.24 89.9384 657.668C89.8498 659.507 90.6507 661.592 91.3206 663.337C91.4435 663.657 91.562 663.965 91.6698 664.259C92.1874 665.383 93.1392 668.457 93.1392 668.457C93.1392 668.457 89.6043 667.321 88.6787 664.919C87.7532 662.516 86.9522 660.14 87.0824 657.438C87.2189 654.604 88.1494 652.912 89.2115 650.981C89.4822 650.489 89.7615 649.981 90.0383 649.435C92.2098 645.152 95.0715 641.23 98.0872 637.533C100.87 634.122 102.677 630.549 102.686 626.119C102.691 623.336 101.509 620.629 100.379 618.143C99.0054 615.12 97.9533 613.444 95.5776 611.265C93.6848 609.528 92.1623 609.651 89.7558 609.845C89.6785 609.851 89.6002 609.857 89.521 609.864C89.458 609.869 89.3947 609.874 89.3311 609.879C85.5227 610.184 80.8378 610.558 77.434 608.421C75.1834 607.008 73.8347 605.243 72.3661 603.322C72.2905 603.223 72.2145 603.123 72.1382 603.024C69.9265 600.136 68.6689 597.268 67.8319 594.668C67.4527 593.49 67.2788 592.242 67.105 590.994C66.8804 589.382 66.6561 587.772 65.9898 586.316C63.7574 581.438 60.8996 580.155 55.6235 577.928C54.2216 577.337 52.8932 576.969 51.5355 576.593C50.8624 576.406 50.1821 576.217 49.4821 575.999C48.5791 575.717 47.5899 575.49 46.6091 575.265C45.8052 575.08 45.0068 574.897 44.266 574.686C42.9916 574.323 37.1928 572.357 37.004 571.501C37.0014 571.501 37.5022 568.002 37.8065 567.502C40.5473 566.897 41.6607 567.728 42.9729 568.707C44.0307 569.497 45.2176 570.383 47.4902 570.691C47.8949 570.745 48.3407 570.777 48.8001 570.81C49.6943 570.874 50.6396 570.942 51.432 571.19C51.9863 571.363 52.5569 571.47 53.1286 571.578C53.9271 571.729 54.7276 571.88 55.4889 572.211C59.3759 573.899 68.9438 579.673 70.9794 584.121C71.6694 585.628 71.8362 587.329 72.0054 589.055C72.146 590.488 72.2883 591.939 72.7333 593.313C72.8432 593.652 72.9475 593.985 73.0501 594.311C73.7331 596.484 74.3374 598.407 75.9687 600.537C77.1666 602.101 77.9944 602.592 79.2568 603.342C79.5683 603.527 79.9062 603.728 80.2827 603.964C83.207 605.801 85.1103 605.629 88.12 605.358C88.5025 605.324 88.9028 605.288 89.3254 605.254C92.7103 604.984 96.3884 605.68 98.9745 608.052C101.064 609.97 103.202 613.841 104.382 616.439C105.438 618.763 106.512 621.423 106.891 624.054C107.124 625.035 107.395 626.68 107.713 628.606C108.456 633.111 109.452 639.152 110.807 641.836C112.789 645.761 114.191 648.535 118.157 650.341C120.67 651.486 122.345 651.66 124.735 651.627C125.861 651.611 126.985 651.662 128.135 651.714C129.598 651.78 131.103 651.849 132.707 651.785C138.855 651.539 144.872 656.213 149.334 660.16Z" fill="#5D5B4E"/>
<path fill-rule="evenodd" clip-rule="evenodd" d="M255.35 64.5441C256.127 64.1398 259.527 60.9494 259.527 60.9494C259.527 60.9494 254.976 62.1845 254.199 62.5888C249.455 65.0566 243.079 66.1684 238.103 64.7138C237.013 64.3951 235.94 64.0237 234.867 63.6523C233.537 63.192 232.207 62.7318 230.844 62.3718C228.245 61.6849 225.413 61.314 222.119 61.9228C216.847 62.8973 212.72 66.2115 209.594 69.8323C207.886 71.8098 206.441 73.9213 205.242 75.8704C204.909 74.7307 204.519 73.6739 204.092 72.7658C203.342 71.171 202.47 69.7282 201.608 68.3023C200.077 65.7702 198.578 63.2913 197.851 60.1086C197.763 59.7244 197.679 59.3636 197.598 59.0214C197 56.4746 196.645 54.9636 197.119 52.5799C197.478 50.7743 198.76 48.9449 199.832 47.4146C200.029 47.1338 200.219 46.863 200.395 46.6043C201.169 45.6391 202.837 42.8867 202.837 42.8867C202.837 42.8867 199.132 43.1332 197.652 45.24C196.172 47.3469 194.82 49.4585 194.292 52.1118C193.738 54.8946 194.232 56.7612 194.795 58.8918C194.938 59.4349 195.086 59.9951 195.223 60.592C196.292 65.2737 198.119 69.7717 200.15 74.0886C202.025 78.0723 202.913 81.9764 201.848 86.2769C201.18 88.9776 199.377 91.3186 197.679 93.4569C195.615 96.057 194.188 97.4283 191.356 98.9679C189.099 100.195 187.651 99.7069 185.363 98.936C185.29 98.9113 185.215 98.8862 185.14 98.8609C185.08 98.8408 185.02 98.8205 184.959 98.8002C181.338 97.5825 176.883 96.0846 173.063 97.3343C170.537 98.1607 168.802 99.5461 166.911 101.055C166.814 101.133 166.716 101.211 166.618 101.289C163.773 103.555 161.859 106.033 160.417 108.353C159.764 109.404 159.293 110.574 158.822 111.742C158.214 113.251 157.607 114.76 156.608 116.011C153.261 120.203 150.177 120.757 144.519 121.639C143.016 121.874 141.638 121.909 140.229 121.945C139.531 121.964 138.825 121.982 138.093 122.024C137.149 122.08 136.134 122.06 135.128 122.041C134.303 122.025 133.484 122.01 132.714 122.035C131.39 122.079 125.584 122.718 125.194 123.502C125.147 123.743 125.082 124.042 125.011 124.371C124.788 125.408 124.499 126.744 124.499 127.503C127.014 128.754 128.36 128.197 129.929 127.547C131.191 127.024 132.598 126.441 134.875 126.692C135.281 126.737 135.722 126.814 136.175 126.894C137.058 127.048 137.992 127.211 138.821 127.163C139.4 127.129 139.98 127.162 140.561 127.196C141.372 127.243 142.185 127.291 143.004 127.154C147.184 126.457 157.865 123.172 160.917 119.349C161.952 118.053 162.525 116.444 163.107 114.81C163.591 113.453 164.08 112.08 164.845 110.855C165.033 110.552 165.215 110.255 165.394 109.963C166.582 108.02 167.634 106.301 169.733 104.629C171.274 103.402 172.196 103.125 173.602 102.703C173.949 102.599 174.326 102.486 174.748 102.348C178.03 101.274 179.835 101.902 182.69 102.893C183.053 103.019 183.432 103.151 183.834 103.286C187.053 104.368 190.79 104.583 193.874 102.907C196.365 101.553 199.376 98.3145 201.151 96.0795C202.738 94.0812 204.423 91.7612 205.427 89.3019C205.891 88.406 206.553 86.8748 207.328 85.082C209.139 80.891 211.568 75.2706 213.533 72.9953C216.406 69.667 218.439 67.3143 222.723 66.5223C225.439 66.0204 227.106 66.2567 229.417 66.8674C230.506 67.1549 231.609 67.3778 232.737 67.6058C234.173 67.8958 235.65 68.1942 237.19 68.6446C243.096 70.3713 250.065 67.2933 255.35 64.5441Z" fill="#5D5B4E"/>
<path fill-rule="evenodd" clip-rule="evenodd" d="M1508.94 603.217C1509.41 602.475 1510.72 598.002 1510.72 598.002C1510.72 598.002 1507.42 601.372 1506.96 602.115C1504.12 606.646 1499.18 610.835 1494.16 612.101C1493.06 612.379 1491.94 612.602 1490.83 612.826C1489.45 613.103 1488.07 613.38 1486.71 613.76C1484.12 614.484 1481.49 615.599 1478.96 617.793C1474.91 621.304 1473.03 626.252 1472.17 630.958C1471.7 633.528 1471.52 636.081 1471.48 638.37C1470.61 637.556 1469.74 636.842 1468.91 636.276C1467.46 635.281 1465.98 634.479 1464.51 633.686C1461.91 632.278 1459.36 630.9 1457.12 628.525C1456.85 628.238 1456.59 627.97 1456.35 627.716C1454.55 625.823 1453.47 624.7 1452.67 622.405C1452.07 620.666 1452.25 618.439 1452.4 616.577C1452.42 616.235 1452.45 615.905 1452.47 615.593C1452.65 614.369 1452.69 611.151 1452.69 611.151C1452.69 611.151 1449.62 613.24 1449.42 615.806C1449.21 618.372 1449.11 620.878 1450 623.433C1450.93 626.113 1452.3 627.473 1453.87 629.024C1454.27 629.42 1454.68 629.828 1455.1 630.273C1458.39 633.768 1462.25 636.72 1466.19 639.413C1469.82 641.898 1472.56 644.814 1473.82 649.061C1474.62 651.728 1474.25 654.66 1473.87 657.364C1473.4 660.651 1472.87 662.556 1471.21 665.319C1469.88 667.52 1468.39 667.833 1466.02 668.327C1465.95 668.343 1465.87 668.359 1465.79 668.376C1465.73 668.389 1465.67 668.402 1465.61 668.415C1461.87 669.2 1457.27 670.165 1454.61 673.178C1452.85 675.17 1452.05 677.244 1451.19 679.502C1451.14 679.618 1451.1 679.735 1451.06 679.852C1449.75 683.248 1449.36 686.354 1449.29 689.085C1449.26 690.322 1449.44 691.568 1449.63 692.814C1449.87 694.424 1450.11 696.032 1449.88 697.617C1449.12 702.927 1446.74 704.966 1442.31 708.594C1441.13 709.557 1439.96 710.286 1438.77 711.031C1438.18 711.4 1437.58 711.774 1436.97 712.181C1436.18 712.707 1435.3 713.205 1434.42 713.698C1433.7 714.102 1432.99 714.504 1432.33 714.916C1431.22 715.625 1424.44 722.6 1424.5 723.475C1425.02 723.475 1425.59 723.482 1426.13 723.49C1427.14 723.504 1428.1 723.517 1428.65 723.478C1431.42 723.285 1432.12 722.24 1432.96 720.989C1433.65 719.958 1434.44 718.786 1436.56 717.836C1436.93 717.669 1437.35 717.512 1437.78 717.351C1438.62 717.037 1439.51 716.704 1440.2 716.243C1440.68 715.92 1441.2 715.655 1441.71 715.39C1442.44 715.02 1443.16 714.648 1443.8 714.116C1447.05 711.398 1454.59 703.154 1455.29 698.311C1455.52 696.67 1455.2 694.992 1454.88 693.289C1454.61 691.874 1454.33 690.442 1454.37 688.998C1454.38 688.642 1454.39 688.294 1454.39 687.952C1454.43 685.674 1454.47 683.659 1455.43 681.155C1456.14 679.316 1456.79 678.61 1457.79 677.534C1458.04 677.268 1458.31 676.98 1458.6 676.647C1460.89 674.059 1462.76 673.685 1465.72 673.093C1466.1 673.018 1466.5 672.94 1466.91 672.852C1470.23 672.154 1473.56 670.447 1475.37 667.44C1476.84 665.01 1477.79 660.692 1478.19 657.866C1478.54 655.338 1478.82 652.483 1478.44 649.853C1478.39 648.845 1478.18 647.19 1477.94 645.253C1477.38 640.722 1476.63 634.646 1477.17 631.689C1477.96 627.364 1478.52 624.306 1481.81 621.452C1483.9 619.644 1485.46 619.003 1487.76 618.358C1488.84 618.055 1489.91 617.688 1491 617.313C1492.38 616.836 1493.81 616.345 1495.36 615.953C1501.33 614.449 1505.78 608.265 1508.94 603.217Z" fill="#5D5B4E"/>
<path fill-rule="evenodd" clip-rule="evenodd" d="M1426.8 132.382C1427.32 133.091 1428.94 137.461 1428.94 137.461C1428.94 137.461 1425.42 134.329 1424.9 133.62C1421.76 129.298 1416.54 125.462 1411.44 124.548C1410.32 124.348 1409.19 124.203 1408.07 124.057C1406.67 123.877 1405.28 123.697 1403.9 123.412C1401.26 122.869 1398.56 121.94 1395.88 119.928C1391.6 116.707 1389.38 111.902 1388.19 107.267C1387.55 104.736 1387.19 102.202 1386.99 99.9228C1386.18 100.795 1385.36 101.568 1384.57 102.19C1383.19 103.284 1381.77 104.187 1380.36 105.08C1377.86 106.665 1375.42 108.217 1373.35 110.743C1373.1 111.048 1372.86 111.333 1372.64 111.604C1370.97 113.617 1369.98 114.812 1369.34 117.157C1368.86 118.934 1369.19 121.143 1369.47 122.991C1369.52 123.33 1369.57 123.657 1369.61 123.967C1369.87 125.176 1370.14 128.383 1370.14 128.383C1370.14 128.383 1366.93 126.512 1366.55 123.967C1366.16 121.421 1365.89 118.928 1366.6 116.317C1367.34 113.579 1368.62 112.128 1370.07 110.471C1370.44 110.049 1370.82 109.613 1371.21 109.139C1374.25 105.424 1377.89 102.211 1381.63 99.2504C1385.09 96.5185 1387.62 93.4187 1388.58 89.0942C1389.19 86.3784 1388.62 83.4796 1388.05 80.8088C1387.36 77.5613 1386.69 75.6982 1384.84 73.058C1383.37 70.9544 1381.85 70.7464 1379.46 70.4175C1379.39 70.4069 1379.31 70.3962 1379.23 70.3853C1379.17 70.3767 1379.1 70.368 1379.04 70.3593C1375.26 69.8365 1370.6 69.1934 1367.74 66.373C1365.84 64.5081 1364.91 62.4946 1363.89 60.3019C1363.83 60.189 1363.78 60.0757 1363.73 59.9618C1362.19 56.6656 1361.58 53.5938 1361.32 50.8747C1361.2 49.6428 1361.3 48.3862 1361.4 47.1303C1361.53 45.5082 1361.66 43.8873 1361.32 42.322C1360.19 37.0777 1357.68 35.2087 1353.01 31.8985C1351.76 31.0189 1350.55 30.3733 1349.3 29.7135C1348.68 29.3863 1348.06 29.0557 1347.42 28.6913C1346.6 28.2212 1345.69 27.7867 1344.78 27.3557C1344.03 27.0025 1343.29 26.6517 1342.61 26.2859C1341.45 25.6565 1335 18.8766 1335 18H1339C1341.73 18 1342.33 18.9601 1343.06 20.1226C1343.68 21.118 1344.4 22.2619 1346.62 23.0786C1347.01 23.2194 1347.43 23.3466 1347.88 23.4777C1348.73 23.7328 1349.64 24.0025 1350.36 24.415C1350.87 24.7035 1351.4 24.9316 1351.94 25.16C1352.68 25.4791 1353.43 25.7991 1354.11 26.2859C1357.54 28.7716 1365.64 36.4708 1366.67 41.253C1367.02 42.8739 1366.81 44.57 1366.61 46.2922C1366.43 47.722 1366.26 49.1698 1366.4 50.6074C1366.43 50.9624 1366.46 51.3091 1366.49 51.65C1366.69 53.9192 1366.87 55.927 1368 58.3582C1368.84 60.1435 1369.54 60.8019 1370.61 61.806C1370.87 62.0538 1371.16 62.3226 1371.48 62.6345C1373.94 65.0576 1375.83 65.3002 1378.83 65.6839C1379.21 65.7326 1379.61 65.7837 1380.03 65.8418C1383.39 66.307 1386.84 67.7786 1388.85 70.6526C1390.48 72.9751 1391.73 77.2156 1392.32 80.007C1392.86 82.5029 1393.33 85.3305 1393.13 87.98C1393.15 88.9888 1393.06 90.6545 1392.96 92.6047C1392.71 97.1638 1392.38 103.278 1393.13 106.19C1394.22 110.45 1394.99 113.461 1398.47 116.079C1400.68 117.738 1402.28 118.269 1404.62 118.752C1405.72 118.979 1406.81 119.271 1407.92 119.569C1409.34 119.949 1410.79 120.34 1412.37 120.622C1418.43 121.707 1423.3 127.567 1426.8 132.382Z" fill="#5D5B4E"/>
</g>
<defs>
<clipPath id="clip0_234_2692">
<rect width="1556" height="784" fill="white"/>
</clipPath>
</defs>
</svg>
