<svg width="261" height="170" viewBox="0 0 261 170" fill="none" xmlns="http://www.w3.org/2000/svg">
<path d="M145.337 36.0031C134.357 35.8572 117.655 40.9497 117.655 40.9497H95.9052C95.9052 40.9497 85.5838 39.9402 79.0982 40.9497C66.8129 42.8621 61.1357 48.478 50.4276 54.8003C46.0919 57.3601 43.7994 59.0211 39.5525 61.7256C31.0585 67.1346 25.6577 69.2745 17.8023 75.5762C13.324 79.1687 9.09276 80.1504 6.92721 85.4695C3.21333 94.5917 11.4355 100.712 17.8023 108.224C24.4518 116.07 29.8184 119.755 39.5525 123.064C51.2508 127.041 59.0541 120.742 71.1891 123.064C81.2651 124.992 85.8291 130.04 95.9052 131.968C108.04 134.29 115.187 131.968 127.542 131.968H157.201C165.309 131.968 169.949 133.199 177.963 131.968C188.102 130.41 193.007 126.487 202.679 123.064C211.543 119.927 216.765 118.829 225.418 115.149C235.43 110.891 244.609 111.666 250.134 102.288C255.428 93.3017 255.148 84.7217 250.134 75.5762C245.751 67.5821 239.418 65.9618 231.349 61.7256C224.427 58.0912 219.876 57.5719 212.565 54.8003C205.592 52.1567 201.817 50.3137 194.77 47.875C185.647 44.7183 180.422 43.2291 171.042 40.9497C161.109 38.5357 155.559 36.1389 145.337 36.0031Z" fill="#D9D9D9"/>
<path d="M145.337 36.0031C134.357 35.8572 117.655 40.9497 117.655 40.9497H95.9052C95.9052 40.9497 85.5838 39.9402 79.0982 40.9497C66.8129 42.8621 61.1357 48.478 50.4276 54.8003C46.0919 57.3601 43.7994 59.0211 39.5525 61.7256C31.0585 67.1346 25.6577 69.2745 17.8023 75.5762C13.324 79.1687 9.09276 80.1504 6.92721 85.4695C3.21333 94.5917 11.4355 100.712 17.8023 108.224C24.4518 116.07 29.8184 119.755 39.5525 123.064C51.2508 127.041 59.0541 120.742 71.1891 123.064C81.2651 124.992 85.8291 130.04 95.9052 131.968C108.04 134.29 115.187 131.968 127.542 131.968H157.201C165.309 131.968 169.949 133.199 177.963 131.968C188.102 130.41 193.007 126.487 202.679 123.064C211.543 119.927 216.765 118.829 225.418 115.149C235.43 110.891 244.609 111.666 250.134 102.288C255.428 93.3017 255.148 84.7217 250.134 75.5762C245.751 67.5821 239.418 65.9618 231.349 61.7256C224.427 58.0912 219.876 57.5719 212.565 54.8003C205.592 52.1567 201.817 50.3137 194.77 47.875C185.647 44.7183 180.422 43.2291 171.042 40.9497C161.109 38.5357 155.559 36.1389 145.337 36.0031Z" stroke="#D9D9D9" stroke-width="3"/>
<path d="M145.337 36.0031C134.357 35.8572 117.655 40.9497 117.655 40.9497H95.9052C95.9052 40.9497 85.5838 39.9402 79.0982 40.9497C66.8129 42.8621 61.1357 48.478 50.4276 54.8003C46.0919 57.3601 43.7994 59.0211 39.5525 61.7256C31.0585 67.1346 25.6577 69.2745 17.8023 75.5762C13.324 79.1687 9.09276 80.1504 6.92721 85.4695C3.21333 94.5917 11.4355 100.712 17.8023 108.224C24.4518 116.07 29.8184 119.755 39.5525 123.064C51.2508 127.041 59.0541 120.742 71.1891 123.064C81.2651 124.992 85.8291 130.04 95.9052 131.968C108.04 134.29 115.187 131.968 127.542 131.968H157.201C165.309 131.968 169.949 133.199 177.963 131.968C188.102 130.41 193.007 126.487 202.679 123.064C211.543 119.927 216.765 118.829 225.418 115.149C235.43 110.891 244.609 111.666 250.134 102.288C255.428 93.3017 255.148 84.7217 250.134 75.5762C245.751 67.5821 239.418 65.9618 231.349 61.7256C224.427 58.0912 219.876 57.5719 212.565 54.8003C205.592 52.1567 201.817 50.3137 194.77 47.875C185.647 44.7183 180.422 43.2291 171.042 40.9497C161.109 38.5357 155.559 36.1389 145.337 36.0031Z" stroke="black" stroke-opacity="0.2" stroke-width="3"/>
<path d="M145.337 36.0031C134.357 35.8572 117.655 40.9497 117.655 40.9497H95.9052C95.9052 40.9497 85.5838 39.9402 79.0982 40.9497C66.8129 42.8621 61.1357 48.478 50.4276 54.8003C46.0919 57.3601 43.7994 59.0211 39.5525 61.7256C31.0585 67.1346 25.6577 69.2745 17.8023 75.5762C13.324 79.1687 9.09276 80.1504 6.92721 85.4695C3.21333 94.5917 11.4355 100.712 17.8023 108.224C24.4518 116.07 29.8184 119.755 39.5525 123.064C51.2508 127.041 59.0541 120.742 71.1891 123.064C81.2651 124.992 85.8291 130.04 95.9052 131.968C108.04 134.29 115.187 131.968 127.542 131.968H157.201C165.309 131.968 169.949 133.199 177.963 131.968C188.102 130.41 193.007 126.487 202.679 123.064C211.543 119.927 216.765 118.829 225.418 115.149C235.43 110.891 244.609 111.666 250.134 102.288C255.428 93.3017 255.148 84.7217 250.134 75.5762C245.751 67.5821 239.418 65.9618 231.349 61.7256C224.427 58.0912 219.876 57.5719 212.565 54.8003C205.592 52.1567 201.817 50.3137 194.77 47.875C185.647 44.7183 180.422 43.2291 171.042 40.9497C161.109 38.5357 155.559 36.1389 145.337 36.0031Z" stroke="black" stroke-opacity="0.2" stroke-width="3"/>
<path d="M103.551 98.0651C88.5 105.502 94.9116 91.6278 83.7058 98.0651C72.5 104.502 66.3653 101.125 62.8616 92.3027C56.9144 77.3269 41.9716 93.5621 41.0316 83.0828C40.1779 73.5656 56.9144 66.9479 56.9144 66.9479C56.9144 66.9479 67.1423 61.761 72 58.5291C76.8577 55.2972 83.229 60.5013 88 60.5013C92.771 60.5013 102.541 58.5291 102.541 58.5291L120 56.5C120 56.5 135.966 52.5056 149.196 54.2705C158.451 55.5052 162.836 60.0923 172.018 62.3379C183.761 65.2096 199 54.2705 202.779 65.7954C202.779 65.7954 243.406 88.8749 223 85.5024C202.594 82.13 211.75 97.0813 202.779 96.5024C199.649 96.3005 201 96.0024 195 94.5024C189 93.0024 189.982 109.702 179.5 101.002C169.018 92.3027 155.5 107.404 150 102.501C148 100.719 135.5 93.0013 125.5 100.848C115.5 108.695 118.603 90.6278 103.551 98.0651Z" fill="#797873"/>
<path d="M103.551 98.0651C88.5 105.502 94.9116 91.6278 83.7058 98.0651C72.5 104.502 66.3653 101.125 62.8616 92.3027C56.9144 77.3269 41.9716 93.5621 41.0316 83.0828C40.1779 73.5656 56.9144 66.9479 56.9144 66.9479C56.9144 66.9479 67.1423 61.761 72 58.5291C76.8577 55.2972 83.229 60.5013 88 60.5013C92.771 60.5013 102.541 58.5291 102.541 58.5291L120 56.5C120 56.5 135.966 52.5056 149.196 54.2705C158.451 55.5052 162.836 60.0923 172.018 62.3379C183.761 65.2096 199 54.2705 202.779 65.7954C202.779 65.7954 243.406 88.8749 223 85.5024C202.594 82.13 211.75 97.0813 202.779 96.5024C199.649 96.3005 201 96.0024 195 94.5024C189 93.0024 189.982 109.702 179.5 101.002C169.018 92.3027 155.5 107.404 150 102.501C148 100.719 135.5 93.0013 125.5 100.848C115.5 108.695 118.603 90.6278 103.551 98.0651Z" stroke="#797873" stroke-width="3"/>
<path d="M103.551 98.0651C88.5 105.502 94.9116 91.6278 83.7058 98.0651C72.5 104.502 66.3653 101.125 62.8616 92.3027C56.9144 77.3269 41.9716 93.5621 41.0316 83.0828C40.1779 73.5656 56.9144 66.9479 56.9144 66.9479C56.9144 66.9479 67.1423 61.761 72 58.5291C76.8577 55.2972 83.229 60.5013 88 60.5013C92.771 60.5013 102.541 58.5291 102.541 58.5291L120 56.5C120 56.5 135.966 52.5056 149.196 54.2705C158.451 55.5052 162.836 60.0923 172.018 62.3379C183.761 65.2096 199 54.2705 202.779 65.7954C202.779 65.7954 243.406 88.8749 223 85.5024C202.594 82.13 211.75 97.0813 202.779 96.5024C199.649 96.3005 201 96.0024 195 94.5024C189 93.0024 189.982 109.702 179.5 101.002C169.018 92.3027 155.5 107.404 150 102.501C148 100.719 135.5 93.0013 125.5 100.848C115.5 108.695 118.603 90.6278 103.551 98.0651Z" stroke="black" stroke-opacity="0.2" stroke-width="3"/>
<path d="M103.551 98.0651C88.5 105.502 94.9116 91.6278 83.7058 98.0651C72.5 104.502 66.3653 101.125 62.8616 92.3027C56.9144 77.3269 41.9716 93.5621 41.0316 83.0828C40.1779 73.5656 56.9144 66.9479 56.9144 66.9479C56.9144 66.9479 67.1423 61.761 72 58.5291C76.8577 55.2972 83.229 60.5013 88 60.5013C92.771 60.5013 102.541 58.5291 102.541 58.5291L120 56.5C120 56.5 135.966 52.5056 149.196 54.2705C158.451 55.5052 162.836 60.0923 172.018 62.3379C183.761 65.2096 199 54.2705 202.779 65.7954C202.779 65.7954 243.406 88.8749 223 85.5024C202.594 82.13 211.75 97.0813 202.779 96.5024C199.649 96.3005 201 96.0024 195 94.5024C189 93.0024 189.982 109.702 179.5 101.002C169.018 92.3027 155.5 107.404 150 102.501C148 100.719 135.5 93.0013 125.5 100.848C115.5 108.695 118.603 90.6278 103.551 98.0651Z" stroke="black" stroke-opacity="0.2" stroke-width="3"/>
</svg>
