<svg width="500" height="500" viewBox="0 0 500 500" fill="none" xmlns="http://www.w3.org/2000/svg">
<path d="M300.185 156.974L296.349 158.106C287.873 160.605 283.028 169.502 285.528 177.978L358.506 425.441C361.006 433.917 369.903 438.762 378.379 436.262L382.215 435.131C390.691 432.631 395.535 423.734 393.036 415.258L320.058 167.795C317.558 159.319 308.661 154.475 300.185 156.974Z" fill="white" stroke="black" stroke-width="8"/>
<path d="M369.587 63.5258L187.347 117.27C178.871 119.769 174.026 128.666 176.526 137.142L198.589 211.957C201.089 220.432 209.986 225.277 218.461 222.777L400.702 169.033C409.178 166.534 414.022 157.637 411.523 149.161L389.459 74.3466C386.96 65.8709 378.063 61.0263 369.587 63.5258Z" fill="white" stroke="black" stroke-width="8"/>
</svg>
