<svg width="500" height="500" viewBox="0 0 500 500" fill="none" xmlns="http://www.w3.org/2000/svg">
<g clip-path="url(#clip0_234_1130)">
<mask id="mask0_234_1130" style="mask-type:luminance" maskUnits="userSpaceOnUse" x="0" y="0" width="500" height="500">
<path d="M500 0H0V500H500V0Z" fill="white"/>
</mask>
<g mask="url(#mask0_234_1130)">
<path d="M172.499 169.998L198.444 202.372L199.573 203.781L201.265 203.152L247.322 186.043L244.835 222.288L244.664 224.785L247.161 224.953L297.388 228.338L268.734 257.122L266.415 259.452L269.28 261.065L308.094 282.901L261.879 296.12L259.019 296.938L260.317 299.614L283 327.992L226.376 326.312L224.321 326.025L223.66 327.992L237 413L177.5 349L131 413L121.338 327.992L120.677 326.025L118.622 326.312L41 361L84.6819 299.614L85.979 296.938L83.1197 296.12L12 281.5L75.7181 261.065L78.5838 259.452L76.264 257.122L49 215L97.8369 224.953L100.334 224.785L100.163 222.288L85.979 156L143.733 203.152L145.425 203.781L146.554 202.372L172.499 169.998Z" fill="#EFC02C"/>
<path d="M172.499 169.998L198.444 202.372L199.573 203.781L201.265 203.152L247.322 186.043L244.835 222.288L244.664 224.785L247.161 224.953L297.388 228.338L268.734 257.122L266.415 259.452L269.28 261.065L308.094 282.901L261.879 296.12L259.019 296.938L260.317 299.614L283 327.992L226.376 326.312L224.321 326.025L223.66 327.992L237 413L177.5 349L131 413L121.338 327.992L120.677 326.025L118.622 326.312L41 361L84.6819 299.614L85.979 296.938L83.1197 296.12L12 281.5L75.7181 261.065L78.5838 259.452L76.264 257.122L49 215L97.8369 224.953L100.334 224.785L100.163 222.288L85.979 156L143.733 203.152L145.425 203.781L146.554 202.372L172.499 169.998Z" stroke="#EFC02C" stroke-width="5"/>
<path d="M172.499 169.998L198.444 202.372L199.573 203.781L201.265 203.152L247.322 186.043L244.835 222.288L244.664 224.785L247.161 224.953L297.388 228.338L268.734 257.122L266.415 259.452L269.28 261.065L308.094 282.901L261.879 296.12L259.019 296.938L260.317 299.614L283 327.992L226.376 326.312L224.321 326.025L223.66 327.992L237 413L177.5 349L131 413L121.338 327.992L120.677 326.025L118.622 326.312L41 361L84.6819 299.614L85.979 296.938L83.1197 296.12L12 281.5L75.7181 261.065L78.5838 259.452L76.264 257.122L49 215L97.8369 224.953L100.334 224.785L100.163 222.288L85.979 156L143.733 203.152L145.425 203.781L146.554 202.372L172.499 169.998Z" stroke="black" stroke-opacity="0.2" stroke-width="5"/>
</g>
<path d="M24.5455 318.385L40.297 301.76L47.3082 320.907L24.5455 318.385Z" fill="#EFC02C"/>
<path d="M24.5455 318.385L40.297 301.76L47.3082 320.907L24.5455 318.385Z" stroke="#EFC02C" stroke-width="4"/>
<path d="M24.5455 318.385L40.297 301.76L47.3082 320.907L24.5455 318.385Z" stroke="black" stroke-opacity="0.2" stroke-width="4"/>
<path d="M61.9444 178.159L52.4191 186.744L49.7474 174.201L61.9444 178.159Z" fill="#EFC02C"/>
<path d="M61.9444 178.159L52.4191 186.744L49.7474 174.201L61.9444 178.159Z" stroke="#EFC02C" stroke-width="4"/>
<path d="M61.9444 178.159L52.4191 186.744L49.7474 174.201L61.9444 178.159Z" stroke="black" stroke-opacity="0.2" stroke-width="4"/>
<path d="M183.785 406.979L178.678 395.217L191.418 396.676L183.785 406.979Z" fill="#EFC02C"/>
<path d="M183.785 406.979L178.678 395.217L191.418 396.676L183.785 406.979Z" stroke="#EFC02C" stroke-width="4"/>
<path d="M183.785 406.979L178.678 395.217L191.418 396.676L183.785 406.979Z" stroke="black" stroke-opacity="0.2" stroke-width="4"/>
<path d="M247.38 213.768L249.964 210.715C254.96 204.813 263.794 204.079 269.695 209.075L466.613 375.771C472.514 380.766 473.248 389.6 468.253 395.501L465.668 398.554C460.673 404.456 451.839 405.19 445.937 400.194L249.02 233.499C243.118 228.503 242.384 219.669 247.38 213.768Z" fill="#8F6D44"/>
<path d="M247.38 213.768L249.964 210.715C254.96 204.813 263.794 204.079 269.695 209.075L466.613 375.771C472.514 380.766 473.248 389.6 468.253 395.501L465.668 398.554C460.673 404.456 451.839 405.19 445.937 400.194L249.02 233.499C243.118 228.503 242.384 219.669 247.38 213.768Z" stroke="#8F6D44" stroke-width="4"/>
<path d="M247.38 213.768L249.964 210.715C254.96 204.813 263.794 204.079 269.695 209.075L466.613 375.771C472.514 380.766 473.248 389.6 468.253 395.501L465.668 398.554C460.673 404.456 451.839 405.19 445.937 400.194L249.02 233.499C243.118 228.503 242.384 219.669 247.38 213.768Z" stroke="black" stroke-opacity="0.2" stroke-width="4"/>
<path d="M435.898 394.125L459.123 366.771" stroke="#58442C" stroke-width="4"/>
<path d="M133.864 239.518L256.625 94.5009C261.62 88.5995 270.454 87.8653 276.356 92.861L335.889 143.257C341.79 148.253 342.524 157.087 337.529 162.988L214.768 308.005C209.773 313.907 200.939 314.641 195.037 309.645L135.504 259.249C129.603 254.253 128.869 245.419 133.864 239.518Z" fill="#8F6D44"/>
<path d="M133.864 239.518L256.625 94.5009C261.62 88.5995 270.454 87.8653 276.356 92.861L335.889 143.257C341.79 148.253 342.524 157.087 337.529 162.988L214.768 308.005C209.773 313.907 200.939 314.641 195.037 309.645L135.504 259.249C129.603 254.253 128.869 245.419 133.864 239.518Z" stroke="#8F6D44" stroke-width="4"/>
<path d="M133.864 239.518L256.625 94.5009C261.62 88.5995 270.454 87.8653 276.356 92.861L335.889 143.257C341.79 148.253 342.524 157.087 337.529 162.988L214.768 308.005C209.773 313.907 200.939 314.641 195.037 309.645L135.504 259.249C129.603 254.253 128.869 245.419 133.864 239.518Z" stroke="black" stroke-opacity="0.2" stroke-width="4"/>
<path d="M155.902 246.57L187.199 210.439" stroke="#725736" stroke-width="5" stroke-linecap="round"/>
<path d="M215.637 174.773L271.523 110.51" stroke="#725736" stroke-width="5" stroke-linecap="round"/>
<path d="M224.07 198.359L238.353 182.173" stroke="#725736" stroke-width="5" stroke-linecap="round"/>
<path d="M173.559 262.492L202.541 227.658" stroke="#725736" stroke-width="5" stroke-linecap="round"/>
<path d="M189.789 278.156L241.211 218.025" stroke="#725736" stroke-width="5" stroke-linecap="round"/>
<path d="M287.367 191.047L316.538 157.722" stroke="#725736" stroke-width="5" stroke-linecap="round"/>
<path d="M210.375 286.922L238.427 253.136" stroke="#725736" stroke-width="5" stroke-linecap="round"/>
<path d="M248.402 197.688L298.679 143.096" stroke="#725736" stroke-width="5" stroke-linecap="round"/>
<path d="M368.816 337.586L392.209 310.234" stroke="#58442C" stroke-width="4"/>
<path d="M384.938 351.125L408.043 323.642" stroke="#58442C" stroke-width="4"/>
<path d="M155.902 246.57L187.199 210.439" stroke="#725736" stroke-width="5" stroke-linecap="round"/>
<path d="M215.637 174.773L271.523 110.51" stroke="#725736" stroke-width="5" stroke-linecap="round"/>
<path d="M224.07 198.359L238.353 182.173" stroke="#725736" stroke-width="5" stroke-linecap="round"/>
<path d="M173.559 262.492L202.541 227.658" stroke="#725736" stroke-width="5" stroke-linecap="round"/>
<path d="M189.789 278.156L241.211 218.025" stroke="#725736" stroke-width="5" stroke-linecap="round"/>
<path d="M287.367 191.047L316.538 157.722" stroke="#725736" stroke-width="5" stroke-linecap="round"/>
<path d="M210.375 286.922L238.427 253.136" stroke="#725736" stroke-width="5" stroke-linecap="round"/>
<path d="M248.402 197.688L298.679 143.096" stroke="#725736" stroke-width="5" stroke-linecap="round"/>
</g>
<defs>
<clipPath id="clip0_234_1130">
<rect width="500" height="500" fill="white"/>
</clipPath>
</defs>
</svg>
