<svg width="500" height="500" viewBox="0 0 500 500" fill="none" xmlns="http://www.w3.org/2000/svg">
<path d="M288.1 163.025L291.936 161.894C299.353 159.707 307.138 163.946 309.325 171.362L382.303 418.825C384.49 426.242 380.251 434.027 372.835 436.214L368.998 437.345C361.582 439.532 353.797 435.293 351.61 427.877L278.632 180.414C276.445 172.997 280.684 165.212 288.1 163.025Z" fill="#8F6D44"/>
<path d="M288.1 163.025L291.936 161.894C299.353 159.707 307.138 163.946 309.325 171.362L382.303 418.825C384.49 426.242 380.251 434.027 372.835 436.214L368.998 437.345C361.582 439.532 353.797 435.293 351.61 427.877L278.632 180.414C276.445 172.997 280.684 165.212 288.1 163.025Z" stroke="#8F6D44" stroke-width="4"/>
<path d="M288.1 163.025L291.936 161.894C299.353 159.707 307.138 163.946 309.325 171.362L382.303 418.825C384.49 426.242 380.251 434.027 372.835 436.214L368.998 437.345C361.582 439.532 353.797 435.293 351.61 427.877L278.632 180.414C276.445 172.997 280.684 165.212 288.1 163.025Z" stroke="black" stroke-opacity="0.2" stroke-width="4"/>
<path d="M346.559 417.289L380.992 407.189" stroke="#58442C" stroke-width="4"/>
<path d="M179.1 122.189L361.34 68.4456C368.757 66.2585 376.542 70.4976 378.729 77.9138L400.792 152.728C402.979 160.145 398.74 167.93 391.324 170.117L209.083 223.86C201.667 226.048 193.882 221.808 191.695 214.392L169.632 139.578C167.445 132.162 171.684 124.376 179.1 122.189Z" fill="#8F6D44"/>
<path d="M179.1 122.189L361.34 68.4456C368.757 66.2585 376.542 70.4976 378.729 77.9138L400.792 152.728C402.979 160.145 398.74 167.93 391.324 170.117L209.083 223.86C201.667 226.048 193.882 221.808 191.695 214.392L169.632 139.578C167.445 132.162 171.684 124.376 179.1 122.189Z" stroke="#8F6D44" stroke-width="4"/>
<path d="M179.1 122.189L361.34 68.4456C368.757 66.2585 376.542 70.4976 378.729 77.9138L400.792 152.728C402.979 160.145 398.74 167.93 391.324 170.117L209.083 223.86C201.667 226.048 193.882 221.808 191.695 214.392L169.632 139.578C167.445 132.162 171.684 124.376 179.1 122.189Z" stroke="black" stroke-opacity="0.2" stroke-width="4"/>
<path d="M193.641 140.188L239.641 127.187" stroke="#725736" stroke-width="5" stroke-linecap="round"/>
<path d="M283 113L365 90" stroke="#725736" stroke-width="5" stroke-linecap="round"/>
<path d="M277.086 137.344L297.912 131.663" stroke="#725736" stroke-width="5" stroke-linecap="round"/>
<path d="M199.648 163.188L243.002 150" stroke="#725736" stroke-width="5" stroke-linecap="round"/>
<path d="M204.609 185.195L280.609 163.195" stroke="#725736" stroke-width="5" stroke-linecap="round"/>
<path d="M334 166L376.682 154.178" stroke="#725736" stroke-width="5" stroke-linecap="round"/>
<path d="M217 203.82L259 190.998" stroke="#725736" stroke-width="5" stroke-linecap="round"/>
<path d="M297.789 150.148L369.789 132.148" stroke="#725736" stroke-width="5" stroke-linecap="round"/>
<path d="M321.562 333.195L356.135 323.19" stroke="#58442C" stroke-width="4"/>
<path d="M327.594 353.367L361.998 343.095" stroke="#58442C" stroke-width="4"/>
<path d="M193.641 140.188L239.641 127.187" stroke="#725736" stroke-width="5" stroke-linecap="round"/>
<path d="M283 113L365 90" stroke="#725736" stroke-width="5" stroke-linecap="round"/>
<path d="M277.086 137.344L297.912 131.663" stroke="#725736" stroke-width="5" stroke-linecap="round"/>
<path d="M199.648 163.188L243.002 150" stroke="#725736" stroke-width="5" stroke-linecap="round"/>
<path d="M204.609 185.195L280.609 163.195" stroke="#725736" stroke-width="5" stroke-linecap="round"/>
<path d="M334 166L376.682 154.178" stroke="#725736" stroke-width="5" stroke-linecap="round"/>
<path d="M217 203.82L259 190.998" stroke="#725736" stroke-width="5" stroke-linecap="round"/>
<path d="M297.789 150.148L369.789 132.148" stroke="#725736" stroke-width="5" stroke-linecap="round"/>
</svg>
