<svg width="105" height="105" viewBox="0 0 105 105" fill="none" xmlns="http://www.w3.org/2000/svg">
<ellipse cx="52.8132" cy="27.6773" rx="34.8367" ry="23.6773" stroke="#F1D900" stroke-width="5"/>
<ellipse cx="52.8132" cy="27.6773" rx="34.8367" ry="23.6773" stroke="black" stroke-opacity="0.2" stroke-width="5"/>
<circle cx="52.9125" cy="65.1352" r="33.9633" fill="#FFC093"/>
<path d="M46.3742 63.5197C45.3978 68.0593 40.9263 70.9479 36.3867 69.9716C31.8471 68.9952 28.9585 64.5237 29.9348 59.9841C30.9112 55.4445 34.3218 57.4891 38.8614 58.4654C43.401 59.4418 47.3505 58.9801 46.3742 63.5197Z" fill="white"/>
<path d="M46.3742 63.5197C45.3978 68.0593 40.9263 70.9479 36.3867 69.9716C31.8471 68.9952 28.9585 64.5237 29.9348 59.9841C30.9112 55.4445 34.3218 57.4891 38.8614 58.4654C43.401 59.4418 47.3505 58.9801 46.3742 63.5197Z" stroke="white"/>
<path d="M46.3742 63.5197C45.3978 68.0593 40.9263 70.9479 36.3867 69.9716C31.8471 68.9952 28.9585 64.5237 29.9348 59.9841C30.9112 55.4445 34.3218 57.4891 38.8614 58.4654C43.401 59.4418 47.3505 58.9801 46.3742 63.5197Z" stroke="black" stroke-opacity="0.2"/>
<circle cx="37.4921" cy="63.8789" r="3.79292" fill="#9D6817"/>
<circle cx="37.4921" cy="63.8789" r="3.79292" stroke="#9D6817"/>
<circle cx="37.4921" cy="63.8789" r="3.79292" stroke="black" stroke-opacity="0.2"/>
<circle cx="37.4902" cy="64.0683" r="1.89646" fill="black"/>
<circle cx="37.4902" cy="64.0683" r="1.89646" stroke="#E89345"/>
<circle cx="37.4902" cy="64.0683" r="1.89646" stroke="black" stroke-opacity="0.2"/>
<ellipse cx="35.5942" cy="62.8325" rx="1.07466" ry="1.07466" fill="white"/>
<path d="M59.8641 63.5744C60.8404 68.114 65.312 71.0026 69.8516 70.0263C74.3912 69.0499 77.2798 64.5784 76.3034 60.0388C75.3271 55.4992 71.9165 57.5438 67.3769 58.5201C62.8373 59.4965 58.8877 59.0348 59.8641 63.5744Z" fill="white"/>
<path d="M59.8641 63.5744C60.8404 68.114 65.312 71.0026 69.8516 70.0263C74.3912 69.0499 77.2798 64.5784 76.3034 60.0388C75.3271 55.4992 71.9165 57.5438 67.3769 58.5201C62.8373 59.4965 58.8877 59.0348 59.8641 63.5744Z" stroke="white"/>
<path d="M59.8641 63.5744C60.8404 68.114 65.312 71.0026 69.8516 70.0263C74.3912 69.0499 77.2798 64.5784 76.3034 60.0388C75.3271 55.4992 71.9165 57.5438 67.3769 58.5201C62.8373 59.4965 58.8877 59.0348 59.8641 63.5744Z" stroke="black" stroke-opacity="0.2"/>
<circle cx="3.79292" cy="3.79292" r="3.79292" transform="matrix(-1 0 0 1 72.5391 60.1406)" fill="#9D6817"/>
<circle cx="3.79292" cy="3.79292" r="3.79292" transform="matrix(-1 0 0 1 72.5391 60.1406)" stroke="#9D6817"/>
<circle cx="3.79292" cy="3.79292" r="3.79292" transform="matrix(-1 0 0 1 72.5391 60.1406)" stroke="black" stroke-opacity="0.2"/>
<circle cx="1.89646" cy="1.89646" r="1.89646" transform="matrix(-1 0 0 1 70.6445 62.2266)" fill="black"/>
<circle cx="1.89646" cy="1.89646" r="1.89646" transform="matrix(-1 0 0 1 70.6445 62.2266)" stroke="#E89345"/>
<circle cx="1.89646" cy="1.89646" r="1.89646" transform="matrix(-1 0 0 1 70.6445 62.2266)" stroke="black" stroke-opacity="0.2"/>
<ellipse cx="1.07466" cy="1.07466" rx="1.07466" ry="1.07466" transform="matrix(-1 0 0 1 71.7188 61.8125)" fill="white"/>
<path d="M26.9327 70.4622C24.6521 66.5378 22.4269 55.3704 22.4269 55.3704L21.0779 65.0769C21.0779 65.0769 21.8545 69.7996 21.0779 72.6163C20.4309 74.9627 17.1992 75.7851 18.1504 78.0016C18.7386 79.3722 20.2343 78.9586 21.0779 80.1557C22.7156 82.4798 21.187 85.3321 22.4269 87.939C23.7043 90.6245 24.7043 91.6689 26.9327 93.5908C34.6671 100.261 54.0597 102.657 70.086 98.1127C72.7413 97.3598 74.1343 96.7477 76.6865 95.7811C78.0986 95.2463 78.9732 94.5863 80.2815 93.5908L80.3709 93.5228C81.2364 92.8645 81.7196 92.497 82.5067 91.6265C83.7526 90.2485 85.0629 89.4538 85.4809 87.6951C85.9719 85.6294 84.2758 83.64 85.4809 82.3099C86.686 80.9797 87.1184 79.8505 87.4325 78.0016C87.9438 74.9919 79.8392 72.5332 82.5067 71.692C83.2395 71.4609 84.7319 70.4622 84.7319 70.4622C88.0799 69.641 85.7814 64.3727 84.7319 60.7687C84.2104 58.9779 86.3722 58.0637 85.4809 56.4605C84.2047 54.1649 82.4186 50.7734 82.4186 50.7734C82.4186 50.7734 81.3409 54.9325 80.2815 57.0884C79.469 58.7419 79.02 59.6994 78.6503 61.5356C78.3196 63.1781 78.6503 63.3923 78.6503 65.0769C78.6503 67.3968 78.1722 66.3524 77.3638 68.4344C76.5555 70.5163 75.9191 72.4833 73.8705 72.6163C71.4645 72.7726 70.3023 74.2541 67.9164 73.8778C66.0302 73.5804 64.5277 73.2419 62.4433 72.6163C59.5146 71.7373 61.435 71.692 58.2745 71.692C55.6691 71.692 54.8365 73.3833 52.231 73.3833C51.0489 73.3833 50.2844 71.692 50.2844 71.692C48.6094 72.0386 47.8526 71.1223 46.3762 71.692C45.4856 72.0356 45.2853 72.2876 44.3709 72.6163C41.7994 73.5407 42.2678 73.1229 40.4894 73.8778C39.616 74.2486 38.6599 73.6551 36.6079 73.8778C32.459 74.3281 29.1799 74.3293 26.9327 70.4622Z" fill="#7E5C43"/>
<path d="M45.5391 77.0625C51.688 82.1013 55.7263 81.6039 60.0948 77.0625" stroke="#DEA480" stroke-linecap="round"/>
<path d="M45.5391 77.0625C51.688 82.1013 55.7263 81.6039 60.0948 77.0625" stroke="black" stroke-opacity="0.2" stroke-linecap="round"/>
<path d="M50 70.6875C52.5725 73.8216 54.2469 73.5306 56.0423 70.7452" stroke="#DEA480" stroke-linecap="round"/>
<path d="M50 70.6875C52.5725 73.8216 54.2469 73.5306 56.0423 70.7452" stroke="black" stroke-opacity="0.2" stroke-linecap="round"/>
<path d="M29.8164 51.6406C35.1535 48.9236 39.2291 49.3117 44.3721 51.6406" stroke="#9F6742" stroke-opacity="0.443137" stroke-linecap="round"/>
<path d="M29.8164 51.6406C35.1535 48.9236 39.2291 49.3117 44.3721 51.6406" stroke="black" stroke-opacity="0.2" stroke-linecap="round"/>
<path d="M61.2578 52.0312C66.5949 49.3142 70.6705 49.7023 75.8135 52.0312" stroke="#9F6742" stroke-opacity="0.443137" stroke-linecap="round"/>
<path d="M61.2578 52.0312C66.5949 49.3142 70.6705 49.7023 75.8135 52.0312" stroke="black" stroke-opacity="0.2" stroke-linecap="round"/>
<path d="M12.1563 90.4657C26.9409 91.5228 24.6319 54.1715 35.3483 49.904C46.0648 45.6365 54.0065 35.1005 56.3085 25.4936C58.6105 15.8868 38.7397 21.7815 28.558 25.4934C3.97163 34.4566 10.618 74.0649 12.1563 90.4657Z" fill="#AB793F"/>
<path d="M91.7356 90.4379C76.951 91.4951 79.26 54.1437 68.5436 49.8762C57.8271 45.6087 51.5258 35.0727 49.2238 25.4659C46.9217 15.859 65.6944 22.1411 75.3339 25.4656C100.073 33.9978 93.274 74.0371 91.7356 90.4379Z" fill="#AB793F"/>
</svg>
