<svg width="261" height="170" viewBox="0 0 261 170" fill="none" xmlns="http://www.w3.org/2000/svg">
<path d="M145.337 36.0031C134.357 35.8572 117.655 40.9497 117.655 40.9497H95.9052C95.9052 40.9497 85.5838 39.9402 79.0982 40.9497C66.8129 42.8621 61.1357 48.478 50.4276 54.8003C46.0919 57.3601 43.7994 59.0211 39.5525 61.7256C31.0585 67.1346 25.6577 69.2745 17.8023 75.5762C13.324 79.1687 9.09276 80.1504 6.92721 85.4695C3.21333 94.5917 11.4355 100.712 17.8023 108.224C24.4518 116.07 29.8184 119.755 39.5525 123.064C51.2508 127.041 59.0541 120.742 71.1891 123.064C81.2651 124.992 85.8291 130.04 95.9052 131.968C108.04 134.29 115.187 131.968 127.542 131.968H157.201C165.309 131.968 169.949 133.199 177.963 131.968C188.102 130.41 193.007 126.487 202.679 123.064C211.543 119.927 216.765 118.829 225.418 115.149C235.43 110.891 244.609 111.666 250.134 102.288C255.428 93.3017 255.148 84.7217 250.134 75.5762C245.751 67.5821 239.418 65.9618 231.349 61.7256C224.427 58.0912 219.876 57.5719 212.565 54.8003C205.592 52.1567 201.817 50.3137 194.77 47.875C185.647 44.7183 180.422 43.2291 171.042 40.9497C161.109 38.5357 155.559 36.1389 145.337 36.0031Z" fill="#D9D9D9"/>
<path d="M145.337 36.0031C134.357 35.8572 117.655 40.9497 117.655 40.9497H95.9052C95.9052 40.9497 85.5838 39.9402 79.0982 40.9497C66.8129 42.8621 61.1357 48.478 50.4276 54.8003C46.0919 57.3601 43.7994 59.0211 39.5525 61.7256C31.0585 67.1346 25.6577 69.2745 17.8023 75.5762C13.324 79.1687 9.09276 80.1504 6.92721 85.4695C3.21333 94.5917 11.4355 100.712 17.8023 108.224C24.4518 116.07 29.8184 119.755 39.5525 123.064C51.2508 127.041 59.0541 120.742 71.1891 123.064C81.2651 124.992 85.8291 130.04 95.9052 131.968C108.04 134.29 115.187 131.968 127.542 131.968H157.201C165.309 131.968 169.949 133.199 177.963 131.968C188.102 130.41 193.007 126.487 202.679 123.064C211.543 119.927 216.765 118.829 225.418 115.149C235.43 110.891 244.609 111.666 250.134 102.288C255.428 93.3017 255.148 84.7217 250.134 75.5762C245.751 67.5821 239.418 65.9618 231.349 61.7256C224.427 58.0912 219.876 57.5719 212.565 54.8003C205.592 52.1567 201.817 50.3137 194.77 47.875C185.647 44.7183 180.422 43.2291 171.042 40.9497C161.109 38.5357 155.559 36.1389 145.337 36.0031Z" stroke="#D9D9D9" stroke-width="3"/>
<path d="M145.337 36.0031C134.357 35.8572 117.655 40.9497 117.655 40.9497H95.9052C95.9052 40.9497 85.5838 39.9402 79.0982 40.9497C66.8129 42.8621 61.1357 48.478 50.4276 54.8003C46.0919 57.3601 43.7994 59.0211 39.5525 61.7256C31.0585 67.1346 25.6577 69.2745 17.8023 75.5762C13.324 79.1687 9.09276 80.1504 6.92721 85.4695C3.21333 94.5917 11.4355 100.712 17.8023 108.224C24.4518 116.07 29.8184 119.755 39.5525 123.064C51.2508 127.041 59.0541 120.742 71.1891 123.064C81.2651 124.992 85.8291 130.04 95.9052 131.968C108.04 134.29 115.187 131.968 127.542 131.968H157.201C165.309 131.968 169.949 133.199 177.963 131.968C188.102 130.41 193.007 126.487 202.679 123.064C211.543 119.927 216.765 118.829 225.418 115.149C235.43 110.891 244.609 111.666 250.134 102.288C255.428 93.3017 255.148 84.7217 250.134 75.5762C245.751 67.5821 239.418 65.9618 231.349 61.7256C224.427 58.0912 219.876 57.5719 212.565 54.8003C205.592 52.1567 201.817 50.3137 194.77 47.875C185.647 44.7183 180.422 43.2291 171.042 40.9497C161.109 38.5357 155.559 36.1389 145.337 36.0031Z" stroke="black" stroke-opacity="0.2" stroke-width="3"/>
<path d="M145.337 36.0031C134.357 35.8572 117.655 40.9497 117.655 40.9497H95.9052C95.9052 40.9497 85.5838 39.9402 79.0982 40.9497C66.8129 42.8621 61.1357 48.478 50.4276 54.8003C46.0919 57.3601 43.7994 59.0211 39.5525 61.7256C31.0585 67.1346 25.6577 69.2745 17.8023 75.5762C13.324 79.1687 9.09276 80.1504 6.92721 85.4695C3.21333 94.5917 11.4355 100.712 17.8023 108.224C24.4518 116.07 29.8184 119.755 39.5525 123.064C51.2508 127.041 59.0541 120.742 71.1891 123.064C81.2651 124.992 85.8291 130.04 95.9052 131.968C108.04 134.29 115.187 131.968 127.542 131.968H157.201C165.309 131.968 169.949 133.199 177.963 131.968C188.102 130.41 193.007 126.487 202.679 123.064C211.543 119.927 216.765 118.829 225.418 115.149C235.43 110.891 244.609 111.666 250.134 102.288C255.428 93.3017 255.148 84.7217 250.134 75.5762C245.751 67.5821 239.418 65.9618 231.349 61.7256C224.427 58.0912 219.876 57.5719 212.565 54.8003C205.592 52.1567 201.817 50.3137 194.77 47.875C185.647 44.7183 180.422 43.2291 171.042 40.9497C161.109 38.5357 155.559 36.1389 145.337 36.0031Z" stroke="black" stroke-opacity="0.2" stroke-width="3"/>
<path d="M103.551 98.0651C88.5 105.502 94.9116 91.6278 83.7058 98.0651C72.5 104.502 66.3653 101.125 62.8616 92.3027C56.9144 77.3269 41.9716 93.5621 41.0316 83.0828C40.1779 73.5656 56.9144 66.9479 56.9144 66.9479C56.9144 66.9479 67.1423 61.761 72 58.5291C76.8577 55.2972 83.229 60.5013 88 60.5013C92.771 60.5013 102.541 58.5291 102.541 58.5291L120 56.5C120 56.5 135.966 52.5056 149.196 54.2705C158.451 55.5052 162.836 60.0923 172.018 62.3379C183.761 65.2096 199 54.2705 202.779 65.7954C202.779 65.7954 243.406 88.8749 223 85.5024C202.594 82.13 211.75 97.0813 202.779 96.5024C199.649 96.3005 201 96.0024 195 94.5024C189 93.0024 189.982 109.702 179.5 101.002C169.018 92.3027 155.5 107.404 150 102.501C148 100.719 135.5 93.0013 125.5 100.848C115.5 108.695 118.603 90.6278 103.551 98.0651Z" fill="#797873"/>
<path d="M103.551 98.0651C88.5 105.502 94.9116 91.6278 83.7058 98.0651C72.5 104.502 66.3653 101.125 62.8616 92.3027C56.9144 77.3269 41.9716 93.5621 41.0316 83.0828C40.1779 73.5656 56.9144 66.9479 56.9144 66.9479C56.9144 66.9479 67.1423 61.761 72 58.5291C76.8577 55.2972 83.229 60.5013 88 60.5013C92.771 60.5013 102.541 58.5291 102.541 58.5291L120 56.5C120 56.5 135.966 52.5056 149.196 54.2705C158.451 55.5052 162.836 60.0923 172.018 62.3379C183.761 65.2096 199 54.2705 202.779 65.7954C202.779 65.7954 243.406 88.8749 223 85.5024C202.594 82.13 211.75 97.0813 202.779 96.5024C199.649 96.3005 201 96.0024 195 94.5024C189 93.0024 189.982 109.702 179.5 101.002C169.018 92.3027 155.5 107.404 150 102.501C148 100.719 135.5 93.0013 125.5 100.848C115.5 108.695 118.603 90.6278 103.551 98.0651Z" stroke="#797873" stroke-width="3"/>
<path d="M103.551 98.0651C88.5 105.502 94.9116 91.6278 83.7058 98.0651C72.5 104.502 66.3653 101.125 62.8616 92.3027C56.9144 77.3269 41.9716 93.5621 41.0316 83.0828C40.1779 73.5656 56.9144 66.9479 56.9144 66.9479C56.9144 66.9479 67.1423 61.761 72 58.5291C76.8577 55.2972 83.229 60.5013 88 60.5013C92.771 60.5013 102.541 58.5291 102.541 58.5291L120 56.5C120 56.5 135.966 52.5056 149.196 54.2705C158.451 55.5052 162.836 60.0923 172.018 62.3379C183.761 65.2096 199 54.2705 202.779 65.7954C202.779 65.7954 243.406 88.8749 223 85.5024C202.594 82.13 211.75 97.0813 202.779 96.5024C199.649 96.3005 201 96.0024 195 94.5024C189 93.0024 189.982 109.702 179.5 101.002C169.018 92.3027 155.5 107.404 150 102.501C148 100.719 135.5 93.0013 125.5 100.848C115.5 108.695 118.603 90.6278 103.551 98.0651Z" stroke="black" stroke-opacity="0.2" stroke-width="3"/>
<path d="M103.551 98.0651C88.5 105.502 94.9116 91.6278 83.7058 98.0651C72.5 104.502 66.3653 101.125 62.8616 92.3027C56.9144 77.3269 41.9716 93.5621 41.0316 83.0828C40.1779 73.5656 56.9144 66.9479 56.9144 66.9479C56.9144 66.9479 67.1423 61.761 72 58.5291C76.8577 55.2972 83.229 60.5013 88 60.5013C92.771 60.5013 102.541 58.5291 102.541 58.5291L120 56.5C120 56.5 135.966 52.5056 149.196 54.2705C158.451 55.5052 162.836 60.0923 172.018 62.3379C183.761 65.2096 199 54.2705 202.779 65.7954C202.779 65.7954 243.406 88.8749 223 85.5024C202.594 82.13 211.75 97.0813 202.779 96.5024C199.649 96.3005 201 96.0024 195 94.5024C189 93.0024 189.982 109.702 179.5 101.002C169.018 92.3027 155.5 107.404 150 102.501C148 100.719 135.5 93.0013 125.5 100.848C115.5 108.695 118.603 90.6278 103.551 98.0651Z" stroke="black" stroke-opacity="0.2" stroke-width="3"/>
<ellipse cx="132.817" cy="29.6773" rx="34.8367" ry="23.6773" stroke="#F1D900" stroke-width="5"/>
<ellipse cx="132.817" cy="29.6773" rx="34.8367" ry="23.6773" stroke="black" stroke-opacity="0.2" stroke-width="5"/>
<circle cx="132.916" cy="67.1352" r="33.9633" fill="#FFC093"/>
<path d="M126.378 65.5197C125.402 70.0593 120.93 72.9479 116.391 71.9716C111.851 70.9952 108.962 66.5237 109.939 61.9841C110.915 57.4445 114.326 59.4891 118.865 60.4654C123.405 61.4418 127.354 60.9801 126.378 65.5197Z" fill="white"/>
<path d="M126.378 65.5197C125.402 70.0593 120.93 72.9479 116.391 71.9716C111.851 70.9952 108.962 66.5237 109.939 61.9841C110.915 57.4445 114.326 59.4891 118.865 60.4654C123.405 61.4418 127.354 60.9801 126.378 65.5197Z" stroke="white"/>
<path d="M126.378 65.5197C125.402 70.0593 120.93 72.9479 116.391 71.9716C111.851 70.9952 108.962 66.5237 109.939 61.9841C110.915 57.4445 114.326 59.4891 118.865 60.4654C123.405 61.4418 127.354 60.9801 126.378 65.5197Z" stroke="black" stroke-opacity="0.2"/>
<circle cx="117.496" cy="65.8789" r="3.79292" fill="#9D6817"/>
<circle cx="117.496" cy="65.8789" r="3.79292" stroke="#9D6817"/>
<circle cx="117.496" cy="65.8789" r="3.79292" stroke="black" stroke-opacity="0.2"/>
<circle cx="117.494" cy="66.0683" r="1.89646" fill="black"/>
<circle cx="117.494" cy="66.0683" r="1.89646" stroke="#E89345"/>
<circle cx="117.494" cy="66.0683" r="1.89646" stroke="black" stroke-opacity="0.2"/>
<ellipse cx="115.598" cy="64.8325" rx="1.07466" ry="1.07466" fill="white"/>
<path d="M139.868 65.5744C140.844 70.114 145.316 73.0026 149.855 72.0263C154.395 71.0499 157.284 66.5784 156.307 62.0388C155.331 57.4992 151.92 59.5438 147.381 60.5201C142.841 61.4965 138.892 61.0348 139.868 65.5744Z" fill="white"/>
<path d="M139.868 65.5744C140.844 70.114 145.316 73.0026 149.855 72.0263C154.395 71.0499 157.284 66.5784 156.307 62.0388C155.331 57.4992 151.92 59.5438 147.381 60.5201C142.841 61.4965 138.892 61.0348 139.868 65.5744Z" stroke="white"/>
<path d="M139.868 65.5744C140.844 70.114 145.316 73.0026 149.855 72.0263C154.395 71.0499 157.284 66.5784 156.307 62.0388C155.331 57.4992 151.92 59.5438 147.381 60.5201C142.841 61.4965 138.892 61.0348 139.868 65.5744Z" stroke="black" stroke-opacity="0.2"/>
<circle cx="3.79292" cy="3.79292" r="3.79292" transform="matrix(-1 0 0 1 152.543 62.1406)" fill="#9D6817"/>
<circle cx="3.79292" cy="3.79292" r="3.79292" transform="matrix(-1 0 0 1 152.543 62.1406)" stroke="#9D6817"/>
<circle cx="3.79292" cy="3.79292" r="3.79292" transform="matrix(-1 0 0 1 152.543 62.1406)" stroke="black" stroke-opacity="0.2"/>
<circle cx="1.89646" cy="1.89646" r="1.89646" transform="matrix(-1 0 0 1 150.648 64.2266)" fill="black"/>
<circle cx="1.89646" cy="1.89646" r="1.89646" transform="matrix(-1 0 0 1 150.648 64.2266)" stroke="#E89345"/>
<circle cx="1.89646" cy="1.89646" r="1.89646" transform="matrix(-1 0 0 1 150.648 64.2266)" stroke="black" stroke-opacity="0.2"/>
<ellipse cx="1.07466" cy="1.07466" rx="1.07466" ry="1.07466" transform="matrix(-1 0 0 1 151.723 63.8125)" fill="white"/>
<path d="M110.28 108.874C108.953 110.384 102.064 113.001 94.4666 111.028C86.8696 109.055 81.7298 106.848 81.2201 102.846C81.2155 99.344 90.0563 96.7838 97.6533 98.7567C105.25 100.73 112.501 106.346 110.28 108.874Z" fill="#653F2B"/>
<path d="M156.455 109.03C157.782 110.54 164.671 113.157 172.268 111.184C179.865 109.211 185.005 107.004 185.514 103.002C185.519 99.5003 176.678 96.94 169.081 98.9129C161.484 100.886 154.233 106.502 156.455 109.03Z" fill="#653F2B"/>
<path d="M102.846 105.179C107.085 101.262 123.141 99.8941 124.548 95.525C125.954 91.1558 101.699 81.708 89.9244 102.8C80.8019 119.142 95.8013 129.377 97.0962 127.956C98.3911 126.535 90.6012 119.081 92.9269 117.961C95.2527 116.842 102.16 127.395 104.456 125.598C106.752 123.801 98.4037 119.078 100.67 116.604C102.936 114.13 110.079 122.299 110.623 119.222C111.167 116.145 98.6074 109.096 102.846 105.179Z" fill="#FFC093"/>
<path d="M102.846 105.179C107.085 101.262 123.141 99.8941 124.548 95.525C125.954 91.1558 101.699 81.708 89.9244 102.8C80.8019 119.142 95.8013 129.377 97.0962 127.956C98.3911 126.535 90.6012 119.081 92.9269 117.961C95.2527 116.842 102.16 127.395 104.456 125.598C106.752 123.801 98.4037 119.078 100.67 116.604C102.936 114.13 110.079 122.299 110.623 119.222C111.167 116.145 98.6074 109.096 102.846 105.179Z" stroke="#FFC093"/>
<path d="M102.846 105.179C107.085 101.262 123.141 99.8941 124.548 95.525C125.954 91.1558 101.699 81.708 89.9244 102.8C80.8019 119.142 95.8013 129.377 97.0962 127.956C98.3911 126.535 90.6012 119.081 92.9269 117.961C95.2527 116.842 102.16 127.395 104.456 125.598C106.752 123.801 98.4037 119.078 100.67 116.604C102.936 114.13 110.079 122.299 110.623 119.222C111.167 116.145 98.6074 109.096 102.846 105.179Z" stroke="black" stroke-opacity="0.2"/>
<path d="M102.846 105.179C107.085 101.262 123.141 99.8941 124.548 95.525C125.954 91.1558 101.699 81.708 89.9244 102.8C80.8019 119.142 95.8013 129.377 97.0962 127.956C98.3911 126.535 90.6012 119.081 92.9269 117.961C95.2527 116.842 102.16 127.395 104.456 125.598C106.752 123.801 98.4037 119.078 100.67 116.604C102.936 114.13 110.079 122.299 110.623 119.222C111.167 116.145 98.6074 109.096 102.846 105.179Z" stroke="black" stroke-opacity="0.2"/>
<path d="M165.08 103.118C160.779 99.269 144.009 104.904 143.925 95.7476C143.88 90.7997 166.551 81.5697 178.659 102.472C188.04 118.667 172.135 129.768 170.817 128.368C169.5 126.968 177.171 119.391 174.827 118.308C172.484 117.226 165.745 127.887 163.421 126.127C161.096 124.367 169.369 119.512 167.064 117.075C164.758 114.637 157.747 122.918 157.154 119.85C156.561 116.782 169.38 106.968 165.08 103.118Z" fill="#FFC093"/>
<path d="M165.08 103.118C160.779 99.269 144.009 104.904 143.925 95.7476C143.88 90.7997 166.551 81.5697 178.659 102.472C188.04 118.667 172.135 129.768 170.817 128.368C169.5 126.968 177.171 119.391 174.827 118.308C172.484 117.226 165.745 127.887 163.421 126.127C161.096 124.367 169.369 119.512 167.064 117.075C164.758 114.637 157.747 122.918 157.154 119.85C156.561 116.782 169.38 106.968 165.08 103.118Z" stroke="#FFC093"/>
<path d="M165.08 103.118C160.779 99.269 144.009 104.904 143.925 95.7476C143.88 90.7997 166.551 81.5697 178.659 102.472C188.04 118.667 172.135 129.768 170.817 128.368C169.5 126.968 177.171 119.391 174.827 118.308C172.484 117.226 165.745 127.887 163.421 126.127C161.096 124.367 169.369 119.512 167.064 117.075C164.758 114.637 157.747 122.918 157.154 119.85C156.561 116.782 169.38 106.968 165.08 103.118Z" stroke="black" stroke-opacity="0.2"/>
<path d="M165.08 103.118C160.779 99.269 144.009 104.904 143.925 95.7476C143.88 90.7997 166.551 81.5697 178.659 102.472C188.04 118.667 172.135 129.768 170.817 128.368C169.5 126.968 177.171 119.391 174.827 118.308C172.484 117.226 165.745 127.887 163.421 126.127C161.096 124.367 169.369 119.512 167.064 117.075C164.758 114.637 157.747 122.918 157.154 119.85C156.561 116.782 169.38 106.968 165.08 103.118Z" stroke="black" stroke-opacity="0.2"/>
<path d="M82.2208 101.5C83.0323 100.341 106.721 86 106.721 86C106.721 86 125.223 100 124.721 101.5C124.219 103 116.569 99.9506 113.221 103C111.537 104.533 110.723 106.5 110.221 108C109.719 109.5 78.7208 106.5 82.2208 101.5Z" fill="#AD5D34"/>
<path d="M82.2208 101.5C83.0323 100.341 106.721 86 106.721 86C106.721 86 125.223 100 124.721 101.5C124.219 103 116.569 99.9506 113.221 103C111.537 104.533 110.723 106.5 110.221 108C109.719 109.5 78.7208 106.5 82.2208 101.5Z" stroke="#AD5D34"/>
<path d="M82.2208 101.5C83.0323 100.341 106.721 86 106.721 86C106.721 86 125.223 100 124.721 101.5C124.219 103 116.569 99.9506 113.221 103C111.537 104.533 110.723 106.5 110.221 108C109.719 109.5 78.7208 106.5 82.2208 101.5Z" stroke="black" stroke-opacity="0.2"/>
<path d="M184.51 101.5C183.698 100.341 160.01 86 160.01 86C160.01 86 141.508 100 142.01 101.5C142.512 103 150.161 99.9506 153.51 103C155.193 104.533 156.008 106.5 156.51 108C157.012 109.5 188.01 106.5 184.51 101.5Z" fill="#AD5D34"/>
<path d="M184.51 101.5C183.698 100.341 160.01 86 160.01 86C160.01 86 141.508 100 142.01 101.5C142.512 103 150.161 99.9506 153.51 103C155.193 104.533 156.008 106.5 156.51 108C157.012 109.5 188.01 106.5 184.51 101.5Z" stroke="#AD5D34"/>
<path d="M184.51 101.5C183.698 100.341 160.01 86 160.01 86C160.01 86 141.508 100 142.01 101.5C142.512 103 150.161 99.9506 153.51 103C155.193 104.533 156.008 106.5 156.51 108C157.012 109.5 188.01 106.5 184.51 101.5Z" stroke="black" stroke-opacity="0.2"/>
<path d="M106.937 72.4622C104.656 68.5378 102.431 57.3704 102.431 57.3704L101.082 67.0769C101.082 67.0769 101.858 71.7996 101.082 74.6163C100.435 76.9627 97.2031 77.7851 98.1544 80.0016C98.7425 81.3722 100.238 80.9586 101.082 82.1557C102.719 84.4798 101.191 87.3321 102.431 89.939C103.708 92.6245 104.708 93.6689 106.937 95.5908C114.671 102.261 134.064 104.657 150.09 100.113C152.745 99.3598 154.138 98.7477 156.69 97.7811C158.103 97.2463 158.977 96.5863 160.285 95.5908L160.375 95.5228C161.24 94.8645 161.723 94.497 162.511 93.6265C163.757 92.2485 165.067 91.4538 165.485 89.6951C165.976 87.6294 164.28 85.64 165.485 84.3099C166.69 82.9797 167.122 81.8505 167.436 80.0016C167.948 76.9919 159.843 74.5332 162.511 73.692C163.243 73.4609 164.736 72.4622 164.736 72.4622C168.084 71.641 165.785 66.3727 164.736 62.7687C164.214 60.9779 166.376 60.0637 165.485 58.4605C164.209 56.1649 162.422 52.7734 162.422 52.7734C162.422 52.7734 161.345 56.9325 160.285 59.0884C159.473 60.7419 159.024 61.6994 158.654 63.5356C158.324 65.1781 158.654 65.3923 158.654 67.0769C158.654 69.3968 158.176 68.3524 157.368 70.4344C156.559 72.5163 155.923 74.4833 153.874 74.6163C151.468 74.7726 150.306 76.2541 147.92 75.8778C146.034 75.5804 144.532 75.2419 142.447 74.6163C139.519 73.7373 141.439 73.692 138.278 73.692C135.673 73.692 134.84 75.3833 132.235 75.3833C131.053 75.3833 130.288 73.692 130.288 73.692C128.613 74.0386 127.857 73.1223 126.38 73.692C125.49 74.0356 125.289 74.2876 124.375 74.6163C121.803 75.5407 122.272 75.1229 120.493 75.8778C119.62 76.2486 118.664 75.6551 116.612 75.8778C112.463 76.3281 109.184 76.3293 106.937 72.4622Z" fill="#7E5C43"/>
<path d="M125.539 79.0625C131.688 84.1013 135.726 83.6039 140.095 79.0625" stroke="#DEA480" stroke-linecap="round"/>
<path d="M125.539 79.0625C131.688 84.1013 135.726 83.6039 140.095 79.0625" stroke="black" stroke-opacity="0.2" stroke-linecap="round"/>
<path d="M130.004 72.6875C132.576 75.8216 134.251 75.5306 136.046 72.7452" stroke="#DEA480" stroke-linecap="round"/>
<path d="M130.004 72.6875C132.576 75.8216 134.251 75.5306 136.046 72.7452" stroke="black" stroke-opacity="0.2" stroke-linecap="round"/>
<path d="M109.82 53.6406C115.157 50.9236 119.233 51.3117 124.376 53.6406" stroke="#9F6742" stroke-opacity="0.443137" stroke-linecap="round"/>
<path d="M109.82 53.6406C115.157 50.9236 119.233 51.3117 124.376 53.6406" stroke="black" stroke-opacity="0.2" stroke-linecap="round"/>
<path d="M141.262 54.0312C146.599 51.3142 150.674 51.7023 155.817 54.0312" stroke="#9F6742" stroke-opacity="0.443137" stroke-linecap="round"/>
<path d="M141.262 54.0312C146.599 51.3142 150.674 51.7023 155.817 54.0312" stroke="black" stroke-opacity="0.2" stroke-linecap="round"/>
<path d="M92.1602 92.4657C106.945 93.5228 104.636 56.1715 115.352 51.904C126.069 47.6365 134.01 37.1005 136.312 27.4936C138.614 17.8868 118.744 23.7815 108.562 27.4934C83.9755 36.4566 90.6219 76.0649 92.1602 92.4657Z" fill="#AB793F"/>
<path d="M171.74 92.4379C156.955 93.4951 159.264 56.1437 148.547 51.8762C137.831 47.6087 131.53 37.0727 129.228 27.4659C126.926 17.859 145.698 24.1411 155.338 27.4656C180.077 35.9978 173.278 76.0371 171.74 92.4379Z" fill="#AB793F"/>
</svg>
