<svg width="550" height="550" viewBox="0 0 550 550" fill="none" xmlns="http://www.w3.org/2000/svg">
<path d="M275.5 515C408.324 515 516 407.324 516 274.5C516 141.676 408.324 34 275.5 34C142.676 34 35 141.676 35 274.5C35 407.324 142.676 515 275.5 515Z" fill="#D9D9D9" stroke="black" stroke-width="20"/>
<path d="M274.5 433C347.678 433 407 373.678 407 300.5C407 227.322 347.678 168 274.5 168C201.322 168 142 227.322 142 300.5C142 373.678 201.322 433 274.5 433Z" fill="#5CA7FF"/>
<path fill-rule="evenodd" clip-rule="evenodd" d="M208.469 373.789C216.47 352.509 243.002 336.884 274.5 336.884C305.998 336.884 332.53 352.509 340.531 373.789C342.14 369.51 343 365.002 343 360.347C343 332.541 312.332 310 274.5 310C236.668 310 206 332.541 206 360.347C206 365.002 206.86 369.51 208.469 373.789Z" fill="black"/>
<path fill-rule="evenodd" clip-rule="evenodd" d="M256.077 267.07C255.519 262.608 254.078 258.183 251.689 254.045C242.102 237.44 220.868 231.75 204.263 241.337C189.284 249.986 183.187 268.112 189.175 283.768L256.077 267.07Z" fill="white"/>
<path fill-rule="evenodd" clip-rule="evenodd" d="M300.349 267.091C300.907 262.63 302.348 258.205 304.737 254.067C314.324 237.461 335.557 231.772 352.163 241.359C367.142 250.007 373.239 268.133 367.251 283.79L300.349 267.091Z" fill="white"/>
<path fill-rule="evenodd" clip-rule="evenodd" d="M274.5 208C343.259 208 399 187.853 399 163C399 138.147 343.259 118 274.5 118C205.741 118 150 138.147 150 163C150 187.853 205.741 208 274.5 208ZM275.5 185C326.586 185 368 174.926 368 162.5C368 150.074 326.586 140 275.5 140C224.414 140 183 150.074 183 162.5C183 174.926 224.414 185 275.5 185Z" fill="#DBCA2E"/>
</svg>
